<svg width="293" height="586" viewBox="0 0 293 586" fill="none" xmlns="http://www.w3.org/2000/svg">
<path d="M37.9782 470.865C37.3182 475.443 37.1945 480.433 37.1738 485.341L48.5788 479.196L47.1764 473.917L41.4843 470.845H37.9782L52.4561 483.444L76.1941 475.443" stroke="#01AAC9" stroke-width="0.2262" stroke-miterlimit="22.9256" stroke-linecap="round" stroke-linejoin="round"/>
<path d="M46.9501 482.123C24.5527 486.887 5.57889 510.848 2.44408 535.674C-0.628863 559.986 14.674 582.441 35.4628 583.246C58.8089 584.153 83.7842 561.099 88.6308 530.952C93.5805 500.043 72.2142 476.762 46.9501 482.123ZM42.4541 502.888L45.754 507.755C45.754 507.755 45.7746 518.498 45.6509 520.477C45.5065 522.457 43.5472 524.127 42.2479 523.405C40.9486 522.704 33.4004 517.529 33.4004 517.529L31.2554 511.487C34.5346 507.878 38.3294 504.929 42.4541 502.888ZM25.6665 519.034L29.8943 522.56C29.8943 522.56 35.7102 525.839 36.4733 526.354C37.257 526.87 36.9682 528.973 35.4008 528.932C33.854 528.89 27.5432 528.086 27.5432 528.086L21.2117 529.055C22.3047 525.529 23.8103 522.148 25.6665 519.034ZM19.3556 538.891C19.3968 538.438 19.4381 537.984 19.4793 537.53L26.2645 534.087C26.2645 534.087 35.6689 534.602 37.1744 534.808C39.0718 535.076 39.608 537.221 38.3294 538.52C37.3394 539.551 27.935 549.016 27.935 549.016L20.6754 551.325C19.5411 547.655 19.0462 543.469 19.3556 538.891ZM30.5336 564.295L30.348 564.254C27.9969 562.811 25.9346 560.872 24.2434 558.522L31.6061 550.088L37.7933 546.15C38.7419 545.881 39.0306 547.036 38.4531 548.129C37.855 549.243 33.1941 557.429 33.1941 557.429L30.5336 564.295ZM50.0025 565.718C48.0226 566.419 46.0221 566.914 44.0215 567.141C41.7117 567.409 39.505 567.327 37.4014 566.935L37.1126 566.729L37.7107 558.584L44.0422 546.954C44.0422 546.954 45.7127 544.191 47.1151 544.252C48.4557 544.314 48.7651 545.675 49.2601 547.861C49.755 550.067 51.4255 557.223 51.4255 557.223L50.0025 565.718ZM52.1886 515.343C51.7555 516.704 50.2706 515.817 50.2706 515.817L48.8682 507.631L49.3632 500.434C50.8687 500.104 52.4154 499.878 53.9622 499.816C55.2203 499.754 56.4165 499.816 57.592 499.939L54.8903 506.022C54.8903 506.022 52.6423 513.982 52.1886 515.343ZM55.4472 519.652C56.2928 516.621 59.1595 507.177 59.1595 507.177L64.1091 501.733C67.3883 503.28 70.1312 505.672 72.2349 508.724L72.3381 509.301L68.4401 515.425C68.4401 515.425 61.7168 519.941 59.2832 521.529C56.8702 523.137 54.6016 522.704 55.4472 519.652ZM57.1382 562.13L55.6947 560.398L54.0242 549.036L54.0447 545.799C54.0447 545.799 54.8078 543.737 56.1896 544.995C57.5714 546.253 61.4074 551.696 61.4074 551.696L65.3877 554.934C62.8923 557.738 60.1081 560.171 57.1382 562.13ZM76.0503 534.231C74.9985 539.015 73.1217 543.593 70.6674 547.717L64.3566 546.108C64.3566 546.108 58.2932 538.52 57.5714 537.345C56.8702 536.19 58.1488 533.633 59.345 533.241C60.5412 532.849 70.3994 530.994 70.3994 530.994L76.1534 533.736C76.1122 533.922 76.0916 534.066 76.0503 534.231ZM76.9165 525.282L71.3893 525.323C71.3893 525.323 65.4909 526.993 63.841 527.426C62.2117 527.859 61.7168 526.354 62.1086 525.447L69.43 519.364L75.5759 515.755C76.4627 518.601 76.9372 521.714 76.9784 525.014L76.9165 525.282Z" stroke="#01AAC9" stroke-width="0.1051" stroke-miterlimit="10" stroke-linecap="round" stroke-linejoin="round"/>
<path d="M46.9501 482.123C24.5527 486.887 5.57889 510.848 2.44408 535.674C-0.628863 559.986 14.674 582.441 35.4628 583.246C58.8089 584.153 83.7842 561.099 88.6308 530.952C93.5805 500.043 72.2142 476.762 46.9501 482.123ZM81.4744 531.983C78.2983 555.058 59.4069 573.472 41.2167 573.801C24.9652 574.111 14.2615 559.615 15.8702 540.953C17.5407 521.735 31.8535 502.373 49.5281 497.795C69.43 492.64 84.7536 508.023 81.4744 531.983Z" stroke="#01AAC9" stroke-width="0.2194" stroke-miterlimit="10" stroke-linecap="round" stroke-linejoin="round"/>
<path d="M49.5287 497.794C31.8541 502.372 17.5413 521.735 15.8708 540.953C14.2621 559.593 24.9452 574.09 41.2173 573.801C59.4075 573.471 78.2989 555.057 81.475 531.983C84.7542 508.022 69.4306 492.639 49.5287 497.794Z" stroke="#01AAC9" stroke-width="0.1051" stroke-miterlimit="10" stroke-linecap="round" stroke-linejoin="round"/>
<path d="M14.2407 540.851C12.529 560.791 23.8721 576.318 41.0723 576.05C60.2111 575.74 79.9894 556.275 83.2892 531.86C86.7128 506.539 70.7086 490.022 49.8167 495.197C31.1935 499.837 16.0144 520.334 14.2407 540.851Z" stroke="#01AAC9" stroke-width="0.1051" stroke-miterlimit="10" stroke-linecap="round" stroke-linejoin="round"/>
<path d="M70.8109 526.828C69.5323 527.199 59.4885 530.004 58.8698 529.942C58.2511 529.88 58.1892 528.973 58.4573 528.271C58.7254 527.57 70.1304 520.023 70.1304 520.023L79.576 512.662C78.9161 510.95 78.1118 509.342 77.1837 507.878L70.6666 516.394C70.3984 516.745 70.0685 517.075 69.7179 517.343L57.9006 526.643C57.1787 527.22 56.2506 527.282 55.5701 526.828L54.0644 525.818C53.3426 525.323 53.0539 524.333 53.3633 523.364L58.1892 507.981C58.4367 507.218 58.8492 506.496 59.3854 505.898L66.0468 498.496C64.4794 497.877 62.8089 497.423 61.0559 497.135L56.1887 506.331C56.1887 506.331 52.7445 520.395 52.3939 521.879C52.0433 523.364 50.4759 523.446 50.3728 521.9C50.2697 520.353 50.1872 506.393 50.1872 506.393L48.8879 498.021C47.2379 498.475 45.65 499.052 44.0826 499.754L47.7742 507.115L48.8054 524.477C48.826 524.993 48.7023 525.529 48.4135 525.983C48.4135 525.983 48.0835 526.746 47.238 527.323C46.3718 527.88 45.485 528.065 45.485 528.065C44.99 528.189 44.4745 528.107 44.0826 527.818L31.8939 519.219L29.0891 510.992C27.6042 512.662 26.243 514.435 24.9643 516.291L30.9453 522.147C30.9453 522.147 41.6077 528.911 42.5358 529.612C43.4433 530.313 42.9071 531.468 40.8653 531.138C38.8442 530.808 27.4392 529.529 27.4392 529.529L17.746 531.282C17.0654 533.53 16.5498 535.839 16.1992 538.149L26.1605 532.437C26.4905 532.251 26.8411 532.169 27.1917 532.21C29.8316 532.478 41.8139 533.736 42.7007 533.921C43.7113 534.128 44.2269 537.53 43.0308 538.54C41.9377 539.468 30.5947 549.634 28.8829 551.181C28.7385 551.304 28.5734 551.428 28.4085 551.511L17.6842 556.81C18.3648 558.748 19.231 560.542 20.2415 562.213L29.151 554.191C29.151 554.191 42.0615 542.252 42.6802 541.675C43.2989 541.097 44.3713 541.633 43.4433 542.994C42.5152 544.376 34.41 558.171 34.41 558.171L30.1822 571.45C31.7909 572.234 33.5026 572.853 35.3175 573.244L36.4311 559.594C36.4518 559.223 36.5756 558.851 36.7612 558.522C38.3286 555.841 45.8562 543.139 46.3512 542.314C47.0111 541.221 50.7853 541.18 51.0946 542.541C51.5071 544.355 53.5695 554.81 53.9613 556.789C54.0026 556.996 54.0026 557.222 53.982 557.429L52.7651 571.244C54.4975 570.502 56.2094 569.636 57.8799 568.625L56.3125 555.222C56.3125 555.222 53.2807 542.85 53.0332 541.633C52.7858 540.417 53.7552 539.922 54.2914 540.644C54.8276 541.365 62.1284 550.83 62.1284 550.83L70.2542 557.655C71.6566 555.923 72.9558 554.068 74.152 552.129L64.3557 549.036C64.0051 548.933 63.6957 548.706 63.4482 548.418L56.1475 539.221C55.735 538.685 55.5287 537.984 55.6112 537.241C55.6937 536.458 55.8175 535.468 56.065 534.829C56.3125 534.19 56.89 533.447 57.3643 532.89C57.7974 532.375 58.3748 532.024 58.9729 531.901L71.6566 529.282C72.0897 529.199 72.5021 529.241 72.894 529.426L81.226 533.344C81.2879 532.911 81.3704 532.478 81.4322 532.024C81.6591 530.395 81.7829 528.808 81.8447 527.261C79.2874 527.034 71.8627 526.519 70.8109 526.828Z" stroke="#01AAC9" stroke-width="0.1051" stroke-miterlimit="10" stroke-linecap="round" stroke-linejoin="round"/>
<path d="M44.2076 534.725C43.9807 538.705 46.4968 541.221 49.6316 540.788C52.6015 540.375 55.5094 537.344 56.3137 533.694C57.2212 529.632 55.3237 526.024 51.7558 526.065C47.9611 526.127 44.4551 530.251 44.2076 534.725Z" fill="#01AAC9" stroke="#01AAC9" stroke-width="0.1051" stroke-miterlimit="10" stroke-linecap="round" stroke-linejoin="round"/>
<path d="M45.3627 534.376C45.1977 537.51 47.2807 539.489 49.8587 539.139C52.3129 538.788 54.6846 536.417 55.3652 533.551C56.1076 530.355 54.5196 527.509 51.591 527.55C48.4355 527.571 45.5483 530.829 45.3627 534.376Z" fill="#01AAC9" stroke="#01AAC9" stroke-width="0.1051" stroke-miterlimit="10" stroke-linecap="round" stroke-linejoin="round"/>
<path d="M74.1946 552.088L70.6679 547.717" stroke="#01AAC9" stroke-width="0.1051" stroke-miterlimit="10" stroke-linecap="round" stroke-linejoin="round"/>
<path d="M76.1326 533.757L81.2679 533.282" stroke="#01AAC9" stroke-width="0.1051" stroke-miterlimit="10" stroke-linecap="round" stroke-linejoin="round"/>
<path d="M76.916 525.281L81.8863 527.22" stroke="#01AAC9" stroke-width="0.1051" stroke-miterlimit="10" stroke-linecap="round" stroke-linejoin="round"/>
<path d="M72.338 509.322L77.1845 507.858" stroke="#01AAC9" stroke-width="0.1051" stroke-miterlimit="10" stroke-linecap="round" stroke-linejoin="round"/>
<path d="M64.5429 501.692L66.0691 498.476" stroke="#01AAC9" stroke-width="0.1051" stroke-miterlimit="10" stroke-linecap="round" stroke-linejoin="round"/>
<path d="M57.5919 499.939L61.098 497.114" stroke="#01AAC9" stroke-width="0.1051" stroke-miterlimit="10" stroke-linecap="round" stroke-linejoin="round"/>
<path d="M42.4531 502.888L44.0825 499.713" stroke="#01AAC9" stroke-width="0.1051" stroke-miterlimit="10" stroke-linecap="round" stroke-linejoin="round"/>
<path d="M29.0898 510.93L31.2346 511.486" stroke="#01AAC9" stroke-width="0.1051" stroke-miterlimit="10" stroke-linecap="round" stroke-linejoin="round"/>
<path d="M25.6663 519.034L24.965 516.23" stroke="#01AAC9" stroke-width="0.1051" stroke-miterlimit="10" stroke-linecap="round" stroke-linejoin="round"/>
<path d="M21.2315 529.056L17.7461 531.262" stroke="#01AAC9" stroke-width="0.1051" stroke-miterlimit="10" stroke-linecap="round" stroke-linejoin="round"/>
<path d="M17.705 556.769L20.6955 551.325" stroke="#01AAC9" stroke-width="0.1051" stroke-miterlimit="10" stroke-linecap="round" stroke-linejoin="round"/>
<path d="M16.2206 538.108L19.4997 537.51" stroke="#01AAC9" stroke-width="0.1051" stroke-miterlimit="10" stroke-linecap="round" stroke-linejoin="round"/>
<path d="M30.5331 564.295L30.2031 571.43" stroke="#01AAC9" stroke-width="0.1051" stroke-miterlimit="10" stroke-linecap="round" stroke-linejoin="round"/>
<path d="M37.3807 566.935L35.3183 573.224" stroke="#01AAC9" stroke-width="0.1051" stroke-miterlimit="10" stroke-linecap="round" stroke-linejoin="round"/>
<path d="M50.0019 565.718L52.7861 571.223" stroke="#01AAC9" stroke-width="0.1051" stroke-miterlimit="10" stroke-linecap="round" stroke-linejoin="round"/>
<path d="M65.4083 554.934L70.2961 557.614" stroke="#01AAC9" stroke-width="0.1051" stroke-miterlimit="10" stroke-linecap="round" stroke-linejoin="round"/>
<path fill-rule="evenodd" clip-rule="evenodd" d="M39.4233 479.567C39.4233 479.567 23.2954 489.485 23.1098 490.784C22.9242 492.083 33.5868 500.435 34.9273 501.548C36.2679 502.662 39.9802 502.847 39.9802 502.847C39.9802 502.847 49.3227 493.609 56.6029 492.475C63.8831 491.341 78.5672 491.527 82.1763 500.352C85.7855 509.157 85.4968 511.178 85.7855 511.384C86.0742 511.611 87.8273 512.353 88.4254 512.766C89.436 514.374 88.9823 517.034 90.3847 517.776C91.7665 518.539 91.684 507.384 91.3952 506.724C91.1271 506.085 86.6105 483.794 76.5874 481.402C66.5642 477.546 53.53 475.278 39.4233 479.567Z" stroke="#01AAC9" stroke-width="0.235" stroke-miterlimit="22.9256"/>
<path fill-rule="evenodd" clip-rule="evenodd" d="M37.9787 470.865C45.3826 467.587 54.8695 464.72 65.1402 463.875C68.8112 467.731 72.503 471.587 76.1946 475.464C77.7208 478.907 77.9682 485.918 77.7001 489.547C72.936 512.127 68.7287 519.921 59.613 535.345C51.6316 546.171 44.0008 544.15 45.032 534.623C45.692 530.149 47.7337 528.396 50.3323 520.086C52.9103 511.776 50.6624 496.063 52.4773 483.485C48.3525 479.856 40.2886 472.886 37.9787 470.865Z" stroke="#01AAC9" stroke-width="0.2262" stroke-miterlimit="22.9256" stroke-linecap="round" stroke-linejoin="round"/>
<path d="M49.2402 534.458C49.2402 536.376 50.6839 537.923 52.4575 537.923C54.2312 537.923 55.9223 536.376 55.9223 534.458C55.9223 532.541 54.2312 530.994 52.4575 530.994C50.6839 530.994 49.2402 532.541 49.2402 534.458Z" stroke="#01AAC9" stroke-width="0.1837" stroke-miterlimit="22.9256"/>
<path d="M52.8292 535.964L52.293 534.685L52.9736 533.469L54.1697 533.531L54.6853 534.809L54.0254 536.026L52.8292 535.964Z" stroke="#01AAC9" stroke-width="0.1837" stroke-miterlimit="22.9256"/>
<path d="M52.4355 483.465L76.1735 475.464" stroke="#01AAC9" stroke-width="0.2262" stroke-miterlimit="22.9256" stroke-linecap="round" stroke-linejoin="round"/>
<path d="M73.6583 472.329C73.7201 471.628 71.5546 472.205 71.5959 471.463C71.6577 470.762 73.8027 470.164 73.8439 469.421C73.9058 468.72 71.7403 469.318 71.8022 468.576C71.8641 467.875 74.0089 467.256 74.0501 466.514C74.112 465.813 71.9671 466.411 72.0084 465.669C72.0702 464.967 74.2152 464.349 74.2564 463.606C74.3183 462.885 72.1733 463.503 72.2146 462.782C72.2764 462.081 74.4214 461.441 74.4626 460.699C74.5245 459.977 72.3796 460.617 72.4209 459.874C72.4827 459.173 74.607 458.534 74.6483 457.792C74.7101 457.07 72.957 457.565 72.6271 456.967C72.0908 455.998 74.6895 453.296 69.1829 454.513C66.9762 455.73 51.6527 453.936 48.4354 452.781C43.8776 452.203 46.2493 454.843 46.2287 454.863C46.1668 455.585 44.022 454.822 43.9601 455.503C43.8982 456.204 46.0637 456.967 46.0225 457.647C45.9606 458.348 43.8157 457.585 43.7744 458.266C43.7125 458.967 45.878 459.75 45.8162 460.431C45.7543 461.153 43.6095 460.369 43.5682 461.029C43.5064 461.73 45.6512 462.514 45.61 463.194C45.5481 463.895 43.4032 463.112 43.3619 463.792C43.3 464.493 45.4449 465.297 45.4037 465.978C45.3418 466.679 43.197 465.895 43.1557 466.555C43.0939 467.256 45.2387 468.06 45.1975 468.741C45.1356 469.442 43.0113 468.638 42.9701 469.318C42.9082 470.019 45.0532 470.844 44.9913 471.525C45.0119 471.483 44.5375 472.783 48.5592 474.762C53.5501 477.257 60.7891 477.773 64.3364 476.845C68.4405 475.896 69.8223 474.123 69.8223 474.164C69.8223 474.164 70.6884 473.422 71.7196 473.133C72.7508 472.886 73.6583 472.329 73.6583 472.329Z" stroke="#01AAC9" stroke-width="0.2262" stroke-miterlimit="22.9256" stroke-linecap="round" stroke-linejoin="round"/>
<path d="M46.0224 457.668C45.713 457.09 55.7567 467.566 73.6581 458.781" stroke="#01AAC9" stroke-width="0.1058" stroke-miterlimit="10"/>
<path d="M44.888 459.441C44.4961 459.029 56.8704 469.009 74.2768 461.049" stroke="#01AAC9" stroke-width="0.1058" stroke-miterlimit="10"/>
<path d="M44.2899 462.06C43.9187 461.565 55.633 472.061 73.6788 464.081" stroke="#01AAC9" stroke-width="0.1058" stroke-miterlimit="10"/>
<path d="M44.3307 465.132C43.9595 464.679 55.9006 475.422 73.7196 467.132" stroke="#01AAC9" stroke-width="0.1058" stroke-miterlimit="10"/>
<path d="M44.186 467.669C43.8148 467.256 55.9828 477.298 73.5749 469.751" stroke="#01AAC9" stroke-width="0.1058" stroke-miterlimit="10"/>
<path d="M43.6308 470.225C43.3215 469.318 52.2309 479.793 73.0197 472.679" stroke="#01AAC9" stroke-width="0.1058" stroke-miterlimit="10"/>
<path d="M96.1586 122.031C95.9936 123.207 96.0761 123.103 95.8905 124.361C95.2512 124.382 93.9312 124.403 93.2712 124.444C92.9619 124.464 92.9825 124.939 92.7556 125.083C92.0544 125.578 90.8789 124.98 90.157 124.939C88.3834 124.815 86.6098 124.588 84.8362 124.403C84.7743 124.403 84.7124 124.423 84.5681 124.444C84.4649 125.186 84.3617 125.97 84.2174 126.856C83.3924 126.671 82.65 126.526 81.9282 126.361C81.3094 126.197 80.6907 126.052 80.0926 125.846C79.3708 125.599 79.2264 125.351 79.3502 124.609C79.5152 123.475 79.5358 123.578 79.7627 122.464C79.9483 121.516 80.3402 121.165 81.3301 121.124C82.4438 121.103 83.5781 121.124 84.6918 121.186C87.0223 121.31 89.3527 121.474 91.6832 121.66C92.9618 121.784 94.8593 121.928 96.1586 122.031Z" stroke="#01AAC9" stroke-width="0.2296" stroke-miterlimit="22.9256"/>
<path d="M110.637 136.898C110.678 136.816 110.699 136.754 110.761 136.671C110.967 136.321 111.235 137.228 111.318 136.795C111.359 136.589 111.318 136.383 111.297 136.176C111.091 134.527 111.503 132.898 111.73 131.248C111.916 129.97 111.049 129.537 110.637 128.299C110.678 127.784 110.843 126.423 110.946 125.639C111.05 124.876 110.988 125.392 111.111 124.629C112.926 125.041 115.051 125.474 116.865 125.887C118.206 126.196 119.547 126.464 120.866 126.897C122.805 127.516 124.022 128.939 124.599 130.836C125.094 132.506 124.744 135.599 123.96 137.042C122.867 139.084 120.475 140.259 117.732 139.517C115.339 138.857 112.844 138.506 110.41 138.012C110.431 137.537 110.472 137.249 110.637 136.898Z" stroke="#01AAC9" stroke-width="0.2296" stroke-miterlimit="22.9256" stroke-linecap="round" stroke-linejoin="round"/>
<path d="M55.5734 8.49504C51.4692 11.5469 52.7066 19.7331 54.8308 21.4034L64.6066 21.9601C64.6066 21.9601 61.4098 25.8986 53.5522 24.0015C48.685 22.8262 42.8485 26.3729 32.351 24.3727C20.3273 22.0632 17.7493 24.1665 14.9857 20.4755C13.1914 18.1041 12.3665 11.5881 19.3167 9.71163C23.854 8.49503 24.8232 9.93845 32.0003 8.74247C37.1356 7.89704 47.5507 7.05162 55.5734 8.49504Z" stroke="#01AAC9" stroke-width="0.2698" stroke-miterlimit="10" stroke-linecap="round" stroke-linejoin="round"/>
<path d="M53.5515 24.0017C49.5505 22.5583 49.3649 17.0939 49.7155 14.2071C50.0661 11.3202 51.7367 8.28903 58.8931 7.42298C64.6471 6.72188 66.9158 9.34068 66.9158 9.34068C68.0088 10.4748 69.6794 17.9187 65.369 21.7747C61.0586 25.6307 55.7995 24.8059 53.5515 24.0017Z" stroke="#01AAC9" stroke-width="0.2698" stroke-miterlimit="10" stroke-linecap="round" stroke-linejoin="round"/>
<path d="M20.0583 9.52625C19.8108 9.58811 19.5634 9.64996 19.2953 9.71182C12.345 11.5883 13.17 18.1043 14.9643 20.4756C16.0986 21.9809 17.1092 22.3727 19.3365 22.847C18.7591 22.6614 17.7691 22.3727 16.2017 19.259C14.5724 16.0423 16.511 10.949 20.0583 9.52625Z" stroke="#01AAC9" stroke-width="0.2698" stroke-miterlimit="10" stroke-linecap="round" stroke-linejoin="round"/>
<path d="M173.436 7.2793L167.579 8.33092C157.721 9.17636 146.604 20.332 141.49 21.4455C140.087 21.7548 135.55 21.961 132.374 22.0641L93.5806 22.2703C88.7546 21.1155 85.6816 17.1358 80.2369 13.1973C76.2153 10.2899 66.6872 9.4032 56.7053 9.5063C50.2088 13.4448 53.7148 20.4145 56.2515 21.4248C64.0473 21.4867 73.6993 22.0641 75.6792 24.4354C80.7732 30.6009 87.0428 33.3434 94.1786 34.1476L132.745 34.8281C136.272 34.6631 142.644 34.4775 144.686 33.9826C151.224 32.3949 156.215 28.745 161.495 24.5591C166.774 20.3732 176.096 19.2185 176.096 19.2185L173.436 7.2793Z" stroke="#01AAC9" stroke-width="0.2698" stroke-miterlimit="10" stroke-linecap="round" stroke-linejoin="round"/>
<path d="M90.3223 26.8271C93.6633 27.7963 95.2308 28.0644 95.7876 30.4563C96.5507 33.7349 99.2318 35.2402 101.583 35.5495C103.934 35.8795 134.21 36.2507 134.21 36.2507L130.332 33.6319L128.724 30.7656L126.909 28.3118L122.681 27.2602L90.3223 26.8271Z" stroke="#01AAC9" stroke-width="0.2698" stroke-miterlimit="10" stroke-linecap="round" stroke-linejoin="round"/>
<path d="M123.053 26.7036L90.591 25.8994C90.591 25.8994 89.766 26.2293 90.3022 26.8479C90.591 27.1779 122.743 27.8789 122.743 27.8789L123.053 26.7036Z" stroke="#01AAC9" stroke-width="0.2698" stroke-miterlimit="10" stroke-linecap="round" stroke-linejoin="round"/>
<path d="M123.052 26.7034C123.98 26.724 128.517 27.5282 129.012 29.4665C129.528 31.4873 130.971 33.7143 132.889 34.5185C134.787 35.3021 137.633 34.601 137.633 34.601L139.737 34.5185C139.737 34.5185 136.478 37.0754 132.889 35.9619C130.662 35.2608 128.95 33.838 128.002 30.4357C127.63 29.0541 124.516 27.9612 122.742 27.8994C122.289 27.8581 122.247 26.6828 123.052 26.7034Z" stroke="#01AAC9" stroke-width="0.2698" stroke-miterlimit="10" stroke-linecap="round" stroke-linejoin="round"/>
<path d="M108.079 31.5903L92.2812 153.786L107.667 154.364L121.464 36.2093C121.464 36.2093 117.463 36.0443 115.339 32.4564C114.142 30.4356 108.636 27.2807 108.079 31.5903Z" stroke="#01AAC9" stroke-width="0.2698" stroke-miterlimit="10" stroke-linecap="round" stroke-linejoin="round"/>
<path d="M103.79 47.5918C103.79 47.5918 111.751 46.3339 122.104 49.3032L120.99 56.3554C120.99 56.3554 114.246 55.18 110.204 54.8501C106.162 54.5408 102.965 54.7058 102.965 54.7058L103.79 47.5918Z" stroke="#01AAC9" stroke-width="0.2698" stroke-miterlimit="10" stroke-linecap="round" stroke-linejoin="round"/>
<path d="M91.0032 47.3857L90.2812 53.0151L103.047 53.7368L103.728 48.0662L91.0032 47.3857Z" stroke="#01AAC9" stroke-width="0.2698" stroke-miterlimit="10" stroke-linecap="round" stroke-linejoin="round"/>
<path d="M121.96 50.1279L135.757 50.9115L135.077 56.2934L121.094 55.5923L121.96 50.1279Z" stroke="#01AAC9" stroke-width="0.2698" stroke-miterlimit="10" stroke-linecap="round" stroke-linejoin="round"/>
<path d="M122.022 49.2002L130.333 49.6745L129.632 55.0564L121.135 54.6646L122.022 49.2002Z" stroke="#01AAC9" stroke-width="0.2698" stroke-miterlimit="10" stroke-linecap="round" stroke-linejoin="round"/>
<path d="M93.7461 23.4865C97.4584 22.7029 99.2321 20.0842 102.47 19.713C105.708 19.3418 132.065 19.548 134.127 19.6717C136.21 19.7955 137.799 20.5584 137.799 20.5584L131.302 20.9502L129.013 23.3215L93.7461 23.4865Z" stroke="#01AAC9" stroke-width="0.2698" stroke-miterlimit="10" stroke-linecap="round" stroke-linejoin="round"/>
<path d="M123.114 20.3932C123.114 20.3932 92.4466 20.187 90.8379 20.2695C89.6005 21.2593 91.8279 23.6512 94.9627 23.6306C97.8088 23.6099 128.126 23.878 128.126 23.878L124.64 22.2284L123.114 20.3932Z" stroke="#01AAC9" stroke-width="0.2698" stroke-miterlimit="10" stroke-linecap="round" stroke-linejoin="round"/>
<path d="M137.469 21.8369C136.108 21.2802 132.437 20.8266 129.838 23.1979C128.065 24.8269 123.899 23.1566 122.826 21.4245C122.311 20.5791 123.012 20.1667 123.569 20.6203C124.27 21.1771 126.167 22.7236 127.879 22.6411C129.364 22.5587 129.612 21.074 132.664 20.3523C135.324 19.713 137.552 20.3935 137.923 20.641C138.789 21.1977 139.655 21.7957 139.573 21.7544L137.469 21.8369Z" stroke="#01AAC9" stroke-width="0.2698" stroke-miterlimit="10" stroke-linecap="round" stroke-linejoin="round"/>
<path d="M107.668 20.2497C107.668 20.2497 105.791 20.1878 104.801 20.1878C103.502 20.1878 102.244 16.538 105.42 15.074C105.42 15.074 108.122 15.0328 109.483 15.074L114.948 15.9607L107.668 20.2497Z" stroke="#01AAC9" stroke-width="0.2698" stroke-miterlimit="10" stroke-linecap="round" stroke-linejoin="round"/>
<path d="M107.669 20.2494C105.359 18.6823 106.431 15.0118 109.463 15.0531C112.412 15.0943 117.898 16.2491 122.559 19.5277L120.229 19.5071C120.229 19.5071 114.062 18.208 113.258 20.2907L107.669 20.2494Z" stroke="#01AAC9" stroke-width="0.2698" stroke-miterlimit="10" stroke-linecap="round" stroke-linejoin="round"/>
<path d="M109.628 17.5898L109.463 20.2499L107.916 20.2292L108.122 17.5898H109.628Z" stroke="#01AAC9" stroke-width="0.2698" stroke-miterlimit="10" stroke-linecap="round" stroke-linejoin="round"/>
<path d="M112.514 20.2291C112.514 20.2291 110.637 20.1672 109.647 20.1672C108.347 20.1672 107.089 16.5174 110.265 15.0534C110.265 15.0534 112.967 15.0121 114.328 15.0534L119.794 15.9401L112.514 20.2291Z" stroke="#01AAC9" stroke-width="0.2698" stroke-miterlimit="10" stroke-linecap="round" stroke-linejoin="round"/>
<path d="M112.513 20.2289C109.688 18.4968 111.276 14.9913 114.308 15.0326C117.257 15.0738 122.743 16.2286 127.404 19.5072L125.073 19.4866C125.073 19.4866 118.907 18.1875 118.102 20.2702L112.513 20.2289Z" stroke="#01AAC9" stroke-width="0.2698" stroke-miterlimit="10" stroke-linecap="round" stroke-linejoin="round"/>
<path d="M109.297 23.6925L109.152 26.3525L107.605 26.3113L107.791 23.6719L109.297 23.6925Z" stroke="#01AAC9" stroke-width="0.2698" stroke-miterlimit="10" stroke-linecap="round" stroke-linejoin="round"/>
<path d="M113.132 17.2588C113.442 16.537 114.205 16.2277 114.824 16.5783C115.463 16.9288 115.731 17.8155 115.422 18.5372C115.112 19.2589 114.349 19.5682 113.731 19.2177C113.091 18.8671 112.823 17.9805 113.132 17.2588Z" stroke="#01AAC9" stroke-width="0.2698" stroke-miterlimit="10" stroke-linecap="round" stroke-linejoin="round"/>
<path d="M105.028 27.4248L104.863 30.3941L110.782 30.6622L110.947 27.5898L105.028 27.4248Z" stroke="#01AAC9" stroke-width="0.2698" stroke-miterlimit="10" stroke-linecap="round" stroke-linejoin="round"/>
<path d="M121.899 17.7956C121.589 17.6925 118.764 16.6821 116.475 16.5996C116.475 16.5996 117.155 17.775 117.031 19.0122C117.031 19.0122 117.568 18.5585 118.434 18.2492C119.383 17.9193 121.548 18.1255 121.899 18.2286C122.249 18.3317 122.187 17.8987 121.899 17.7956Z" stroke="#01AAC9" stroke-width="0.2698" stroke-miterlimit="10" stroke-linecap="round" stroke-linejoin="round"/>
<path d="M175.766 4.49474C174.096 3.03069 168.466 7.23724 168.631 12.1243C168.795 17.0113 171.023 21.589 174.632 21.2384C176.406 21.0529 178.757 20.8467 178.757 20.8467C181.747 21.7746 197.195 25.5275 210.765 22.2488C216.87 20.7848 219.406 21.4034 222.335 20.7642C225.243 20.125 234.957 17.8155 235.204 13.4646C235.555 7.23726 229.78 7.42282 224.335 2.68014C216.127 3.07193 212.167 3.03071 203.877 2.4121C188.656 1.25736 185.913 4.65971 180.572 4.30916L175.766 4.49474Z" stroke="#01AAC9" stroke-width="0.2698" stroke-miterlimit="10" stroke-linecap="round" stroke-linejoin="round"/>
<path d="M235.206 13.4446C235.721 7.65027 231.72 2.96946 224.337 2.66016C217.882 2.84574 214.396 8.02145 214.602 12.2074C214.829 17.1769 218.5 20.2699 222.336 20.7442C226.152 21.2185 234.628 19.8987 235.206 13.4446Z" stroke="#01AAC9" stroke-width="0.2698" stroke-miterlimit="10" stroke-linecap="round" stroke-linejoin="round"/>
<path d="M222.543 3.54688C217.284 5.52643 215.613 11.7538 217.82 15.7129C219.099 18.0017 220.687 19.5689 222.955 20.105" stroke="#01AAC9" stroke-width="0.2698" stroke-miterlimit="10" stroke-linecap="round" stroke-linejoin="round"/>
<path d="M178.386 20.7444C178.386 20.7444 177.005 20.9506 176.489 20.8681C173.602 20.3938 169.209 18.3318 169.683 12.8881C170.158 7.42366 175.458 5.50595 178.386 4.8461L180.552 4.28937C178.283 3.07278 173.065 3.6295 170.343 6.00083C167.559 8.45465 166.177 10.6198 166.383 14.7851C166.59 18.9504 170.653 21.8991 172.736 22.394C176.675 23.3013 179.314 22.1053 180.511 21.2805L178.386 20.7444Z" stroke="#01AAC9" stroke-width="0.2698" stroke-miterlimit="10" stroke-linecap="round" stroke-linejoin="round"/>
<path d="M308.049 355.268C289.549 359.783 273.896 382.61 271.297 406.241C268.76 429.377 281.403 450.76 298.562 451.523C317.824 452.389 338.448 430.429 342.449 401.746C346.553 372.321 328.92 350.174 308.049 355.268ZM304.336 375.042L307.059 379.682C307.059 379.682 307.079 389.91 306.976 391.786C306.873 393.663 305.244 395.25 304.171 394.591C303.099 393.91 296.871 389.002 296.871 389.002L295.097 383.249C297.799 379.785 300.954 376.981 304.336 375.042ZM290.477 390.405L293.963 393.766C293.963 393.766 298.768 396.879 299.407 397.374C300.047 397.869 299.799 399.869 298.521 399.828C297.242 399.787 292.045 399.024 292.045 399.024L286.806 399.931C287.714 396.591 288.972 393.374 290.477 390.405ZM285.28 409.293C285.301 408.86 285.342 408.427 285.383 407.994L290.972 404.715C290.972 404.715 298.727 405.21 299.985 405.416C301.552 405.664 301.985 407.705 300.933 408.942C300.109 409.911 292.354 418.943 292.354 418.943L286.352 421.129C285.424 417.644 285.033 413.664 285.28 409.293ZM294.499 433.48L294.354 433.439C292.416 432.058 290.704 430.222 289.322 427.995L295.406 419.974L300.5 416.221C301.284 415.974 301.532 417.067 301.037 418.118C300.542 419.17 296.685 426.964 296.685 426.964L294.499 433.48ZM310.585 434.841C308.956 435.522 307.306 435.976 305.636 436.182C303.738 436.429 301.903 436.347 300.17 435.996L299.923 435.79L300.418 428.037L305.656 416.964C305.656 416.964 307.038 414.324 308.193 414.386C309.307 414.448 309.554 415.747 309.967 417.83C310.379 419.933 311.761 426.738 311.761 426.738L310.585 434.841ZM312.38 386.879C312.029 388.178 310.792 387.332 310.792 387.332L309.637 379.538L310.049 372.671C311.287 372.362 312.565 372.156 313.844 372.094C314.875 372.032 315.865 372.094 316.834 372.218L314.607 378.012C314.607 378.012 312.751 385.579 312.38 386.879ZM315.061 391.003C315.762 388.116 318.134 379.125 318.134 379.125L322.217 373.95C324.919 375.414 327.188 377.703 328.92 380.61L329.002 381.167L325.785 387.002C325.785 387.002 320.237 391.291 318.216 392.817C316.236 394.302 314.38 393.889 315.061 391.003ZM316.484 431.418L315.288 429.769L313.906 418.964L313.926 415.891C313.926 415.891 314.566 413.932 315.7 415.108C316.834 416.304 320.01 421.48 320.01 421.48L323.29 424.573C321.227 427.253 318.917 429.563 316.484 431.418ZM332.075 404.859C331.209 409.417 329.662 413.767 327.641 417.706L322.423 416.18C322.423 416.18 317.412 408.963 316.834 407.849C316.257 406.757 317.309 404.303 318.299 403.952C319.289 403.581 327.414 401.828 327.414 401.828L332.158 404.426C332.137 404.571 332.117 404.715 332.075 404.859ZM332.797 396.364L328.239 396.385C328.239 396.385 323.372 397.972 322.011 398.385C320.65 398.797 320.258 397.354 320.588 396.508L326.631 390.714L331.704 387.291C332.426 389.992 332.838 392.962 332.88 396.096L332.797 396.364Z" stroke="#01AAC9" stroke-width="0.0932" stroke-miterlimit="10" stroke-linecap="round" stroke-linejoin="round"/>
<path d="M308.049 355.268C289.549 359.783 273.896 382.61 271.297 406.241C268.76 429.377 281.403 450.76 298.562 451.523C317.824 452.389 338.448 430.429 342.449 401.746C346.553 372.321 328.92 350.174 308.049 355.268ZM336.551 402.715C333.932 424.676 318.34 442.203 303.326 442.533C289.9 442.822 281.073 429.027 282.413 411.272C283.795 392.982 295.613 374.548 310.194 370.197C326.631 365.268 339.273 379.93 336.551 402.715Z" stroke="#01AAC9" stroke-width="0.2194" stroke-miterlimit="10" stroke-linecap="round" stroke-linejoin="round"/>
<path d="M310.193 370.176C295.612 374.526 283.774 392.961 282.413 411.251C281.073 429.005 289.92 442.8 303.326 442.512C318.34 442.182 333.931 424.675 336.551 402.694C339.273 379.929 326.631 365.268 310.193 370.176Z" stroke="#01AAC9" stroke-width="0.0932" stroke-miterlimit="10" stroke-linecap="round" stroke-linejoin="round"/>
<path d="M281.052 411.169C279.629 430.14 289.013 444.945 303.202 444.677C319 444.388 335.334 425.871 338.057 402.611C340.882 378.506 327.662 362.794 310.421 367.722C295.056 372.114 282.517 391.642 281.052 411.169Z" stroke="#01AAC9" stroke-width="0.0932" stroke-miterlimit="10" stroke-linecap="round" stroke-linejoin="round"/>
<path d="M327.765 397.808C326.713 398.158 318.423 400.818 317.907 400.777C317.412 400.736 317.35 399.849 317.577 399.169C317.783 398.488 327.208 391.312 327.208 391.312L335.004 384.301C334.447 382.672 333.787 381.146 333.024 379.744L327.641 387.848C327.415 388.198 327.146 388.487 326.858 388.755L317.103 397.601C316.505 398.137 315.742 398.22 315.185 397.787L313.947 396.818C313.349 396.344 313.122 395.416 313.37 394.488L317.35 379.847C317.556 379.126 317.886 378.424 318.34 377.868L323.847 370.816C322.547 370.218 321.166 369.785 319.722 369.537L315.7 378.28C315.7 378.28 312.854 391.663 312.565 393.065C312.277 394.488 310.977 394.55 310.895 393.085C310.792 391.621 310.73 378.321 310.73 378.321L309.657 370.341C308.296 370.774 306.976 371.331 305.677 371.991L308.709 378.981L309.554 395.519C309.575 396.014 309.472 396.508 309.245 396.941C309.245 396.941 308.977 397.684 308.276 398.199C307.574 398.735 306.832 398.9 306.832 398.9C306.42 399.024 306.007 398.942 305.677 398.674L295.613 390.487L293.303 382.652C292.086 384.239 290.952 385.93 289.9 387.683L294.85 393.25C294.85 393.25 303.656 399.684 304.419 400.364C305.182 401.045 304.728 402.138 303.037 401.828C301.367 401.519 291.962 400.303 291.962 400.303L283.96 401.973C283.403 404.117 282.97 406.303 282.682 408.51L290.911 403.066C291.179 402.88 291.467 402.818 291.756 402.839C293.922 403.107 303.821 404.303 304.563 404.468C305.388 404.654 305.822 407.912 304.852 408.86C303.945 409.747 294.581 419.418 293.158 420.902C293.035 421.026 292.911 421.129 292.767 421.212L283.919 426.264C284.476 428.099 285.198 429.81 286.023 431.398L293.385 423.769C293.385 423.769 304.048 412.407 304.543 411.85C305.058 411.314 305.945 411.809 305.182 413.108C304.419 414.428 297.716 427.563 297.716 427.563L294.231 440.203C295.551 440.945 296.974 441.523 298.459 441.914L299.387 428.924C299.407 428.573 299.511 428.223 299.655 427.913C300.954 425.356 307.162 413.273 307.575 412.469C308.111 411.417 311.246 411.396 311.493 412.675C311.823 414.407 313.535 424.346 313.844 426.222C313.885 426.429 313.885 426.635 313.865 426.841L312.854 439.997C314.298 439.296 315.7 438.471 317.082 437.502L315.783 424.738C315.783 424.738 313.287 412.964 313.081 411.788C312.875 410.613 313.679 410.159 314.112 410.84C314.545 411.52 320.588 420.531 320.588 420.531L327.291 427.027C328.446 425.377 329.518 423.624 330.508 421.768L322.424 418.82C322.135 418.717 321.867 418.51 321.681 418.222L315.659 409.479C315.308 408.984 315.164 408.303 315.205 407.602C315.267 406.86 315.37 405.911 315.576 405.313C315.783 404.715 316.257 403.994 316.649 403.458C317.02 402.963 317.474 402.633 317.99 402.53L328.466 400.035C328.817 399.952 329.168 399.993 329.477 400.158L336.345 403.891C336.406 403.478 336.468 403.066 336.51 402.653C336.695 401.107 336.798 399.602 336.84 398.117C334.757 398.014 328.631 397.519 327.765 397.808Z" stroke="#01AAC9" stroke-width="0.0932" stroke-miterlimit="10" stroke-linecap="round" stroke-linejoin="round"/>
<path d="M290.478 390.405L289.9 387.745" stroke="#01AAC9" stroke-width="0.0932" stroke-miterlimit="10" stroke-linecap="round" stroke-linejoin="round"/>
<path d="M286.828 399.952L283.961 402.035" stroke="#01AAC9" stroke-width="0.0932" stroke-miterlimit="10" stroke-linecap="round" stroke-linejoin="round"/>
<path d="M283.92 426.305L286.374 421.129" stroke="#01AAC9" stroke-width="0.0932" stroke-miterlimit="10" stroke-linecap="round" stroke-linejoin="round"/>
<path d="M282.682 408.551L285.383 407.994" stroke="#01AAC9" stroke-width="0.0932" stroke-miterlimit="10" stroke-linecap="round" stroke-linejoin="round"/>
<path fill-rule="evenodd" clip-rule="evenodd" d="M104.655 465.689C104.655 465.689 95.0241 469.071 95.2097 471.566C95.3953 474.061 112.142 491.341 117.669 492.248L174.116 476.68L290.063 425.748L300.458 418.221C300.458 418.221 309.614 410.612 314.193 408.303C314.461 405.767 314.997 403.251 315.265 400.715L310.996 399.271C302.293 403.498 295.446 406.385 286.743 410.633C282.948 408.612 279.133 406.592 275.338 404.571C275.688 404.241 276.06 403.911 276.41 403.581C277.503 401.56 278.617 399.539 279.71 397.519C279.71 397.519 269.151 397.622 266.552 398.178C263.953 398.735 226.872 412.303 220.726 414.902C214.58 417.5 149.595 442.017 143.181 445.399C136.746 448.76 117.483 458.926 104.655 465.689Z" stroke="#01AAC9" stroke-width="0.2262" stroke-miterlimit="22.9256"/>
<path fill-rule="evenodd" clip-rule="evenodd" d="M111.379 488.64C111.379 488.64 110.286 498.022 110.905 499.095C111.523 500.167 113.936 500.703 113.936 500.703L149.224 483.547C149.224 483.547 125.321 490.599 122.248 490.991C119.175 491.403 118.556 493.012 116.494 491.898C114.431 490.785 111.379 488.64 111.379 488.64Z" stroke="#01AAC9" stroke-width="0.2262" stroke-miterlimit="22.9256"/>
<path d="M114.267 490.682C114.267 490.682 113.071 497.837 113.999 499.033C114.927 500.229 115.608 499.61 115.608 499.61" stroke="#01AAC9" stroke-width="0.2262" stroke-miterlimit="22.9256"/>
<path fill-rule="evenodd" clip-rule="evenodd" d="M97.3143 474.886C97.768 474.515 97.0049 486.681 97.4586 487.671C97.9124 488.661 98.7166 488.743 99.4178 488.29C100.119 487.836 107.626 485.485 107.626 485.485L97.3143 474.886Z" stroke="#01AAC9" stroke-width="0.2262" stroke-miterlimit="22.9256"/>
<path d="M99.6438 478.021C99.6438 478.021 98.8808 486.784 99.1489 487.547C99.417 488.31 99.4995 488.248 99.4995 488.248" stroke="#01AAC9" stroke-width="0.2262" stroke-miterlimit="22.9256"/>
<path d="M100.305 477.298C99.81 477.752 145.822 458.018 145.822 458.018C149.204 460.452 152.586 462.885 155.989 465.318C140.893 471.978 124.827 478.618 109.751 485.279C111.421 487.732 114.37 488.846 117.526 490.97C138.48 485.588 153.184 480.35 172.179 473.979C205.301 458.823 298.087 418.881 298.087 418.881C299.531 415.953 314.998 400.694 314.998 400.694L310.729 398.714C305.511 401.251 292.952 409.066 287.713 411.581C283.011 408.963 278.329 406.344 273.627 403.725C274.865 403.106 276.081 402.467 277.319 401.849C277.834 400.529 278.35 399.23 278.866 397.91C273.895 398.488 267.77 398.982 262.8 399.56C234.937 406.468 187.399 429.418 159.619 439.336C139.387 446.657 119.382 456.699 99.8925 467.669C98.5313 468.535 95.7676 470.329 95.582 472.102C96.9226 474.144 97.8714 475.566 100.305 477.298Z" stroke="#01AAC9" stroke-width="0.2296" stroke-miterlimit="22.9256"/>
<path fill-rule="evenodd" clip-rule="evenodd" d="M174.798 471.154L128.538 485.134L122.578 482.371L161.33 465.009L136.458 453.523L137.798 449.667L253.663 403.189L267.893 401.457L265.191 407.725L262.944 408.88L280.907 414.736L310.296 399.869L313.327 401.045L295.818 418.407L174.798 471.154Z" stroke="#01AAC9" stroke-width="0.2262" stroke-miterlimit="22.9256"/>
<path fill-rule="evenodd" clip-rule="evenodd" d="M105.192 461.772C104.243 465.751 104.8 474.453 103.852 478.433C105.584 481.052 107.894 481.691 109.812 483.505C125.61 477.835 139.098 470.226 154.916 464.555C154.978 457.318 152.524 452.596 148.853 447.317C129.961 434.78 123.753 440.904 120.722 442.821C122.021 444.492 125.63 444.945 126.93 446.616C119.691 451.668 112.431 456.72 105.192 461.772Z" stroke="#01AAC9" stroke-width="0.2296" stroke-miterlimit="22.9256"/>
<path d="M128.539 447.874C128.539 447.874 139.243 439.502 148.853 447.338" stroke="#01AAC9" stroke-width="0.2262" stroke-miterlimit="22.9256"/>
<path d="M112.761 466.246C112.761 466.246 108.946 483.835 109.833 483.526" stroke="#01AAC9" stroke-width="0.2262" stroke-miterlimit="22.9256"/>
<path fill-rule="evenodd" clip-rule="evenodd" d="M59.7369 461.132C67.5533 461.132 73.9055 457.029 73.9055 451.977C73.9055 446.945 67.5327 442.821 59.7369 442.821C51.9205 442.821 45.5684 446.925 45.5684 451.977C45.5478 457.029 51.9205 461.132 59.7369 461.132Z" stroke="#01AAC9" stroke-width="0.2262" stroke-miterlimit="22.9256" stroke-linecap="round" stroke-linejoin="round"/>
<path d="M74.0296 451.008C72.1116 454.493 66.8526 457.298 60.6448 457.401C53.179 457.504 47.0538 453.689 46.5176 448.946" stroke="#01AAC9" stroke-width="0.2262" stroke-miterlimit="22.9256" stroke-linecap="round" stroke-linejoin="round"/>
<path fill-rule="evenodd" clip-rule="evenodd" d="M76.4846 437.914L110.7 465.298L112.473 464.721L128.477 476.846C128.477 476.846 144.873 469.938 139.325 459.442C137.82 456.596 132.375 451.874 125.672 445.565C107.585 428.553 78.4439 404.015 78.4439 404.015L73.8242 438.409L76.4846 437.914Z" stroke="#01AAC9" stroke-width="0.2262" stroke-miterlimit="22.9256"/>
<path fill-rule="evenodd" clip-rule="evenodd" d="M54.3961 390.858C51.7562 410.221 50.3332 428.82 47.6934 448.183C51.4263 455.792 65.9041 458.576 72.9368 451.173C75.0611 432.408 78.134 413.706 80.2583 394.941C70.462 398.673 60.0676 396.158 54.3961 390.858Z" stroke="#01AAC9" stroke-width="0.2262" stroke-miterlimit="22.9256"/>
<path fill-rule="evenodd" clip-rule="evenodd" d="M69.5959 381.002C78.2373 382.239 84.7956 386.693 84.2594 390.941C83.7232 395.189 76.2986 397.643 67.6573 396.406C59.0159 395.168 52.4576 390.714 52.9938 386.466C53.53 382.219 60.9546 379.765 69.5959 381.002Z" stroke="#01AAC9" stroke-width="0.2262" stroke-miterlimit="22.9256"/>
<path fill-rule="evenodd" clip-rule="evenodd" d="M68.9773 381.435C76.6906 382.239 82.5683 385.167 82.094 387.972C81.6196 390.776 74.9788 392.384 67.2448 391.559C59.5316 390.755 53.6538 387.827 54.1282 385.023C54.6231 382.239 61.264 380.631 68.9773 381.435Z" stroke="#01AAC9" stroke-width="0.2262" stroke-miterlimit="22.9256"/>
<path fill-rule="evenodd" clip-rule="evenodd" d="M58.3156 376.672C57.7794 379.291 57.2432 381.909 56.707 384.528C57.6557 385.518 58.6044 386.487 59.5531 387.477C61.9042 388.281 64.2553 389.085 66.6064 389.89C69.7 390.096 72.7935 390.302 75.8871 390.508C77.6814 389.745 79.455 388.962 81.2492 388.178C81.4967 385.497 81.7237 382.817 81.9712 380.136C80.3419 380.878 78.7126 381.621 77.0627 382.363C73.9485 382.446 70.6487 382.013 67.5139 382.095C66.9983 381.765 64.5647 380.693 64.0491 380.363C58.7488 378.981 59.4706 378.342 58.3156 376.672Z" stroke="#01AAC9" stroke-width="0.2262" stroke-miterlimit="22.9256"/>
<path fill-rule="evenodd" clip-rule="evenodd" d="M61.6149 358.01C61.6149 358.01 59.6556 357.474 59.1194 361.578C58.5831 365.681 57.5108 376.404 57.3664 377.084C57.222 377.826 70.6068 386.116 81.393 380.404C88.4463 379.146 92.0143 378.466 92.0143 378.466L94.4273 363.021L87.5595 360.526L83.4554 360.877L61.6149 358.01Z" stroke="#01AAC9" stroke-width="0.2296" stroke-miterlimit="22.9256"/>
<path d="M59.7383 359.269C59.7383 359.269 61.0789 363.723 68.2972 364.712C75.5155 365.702 80.7746 364.795 82.6514 364.63C84.5282 364.444 94.4275 363.021 94.4275 363.021" stroke="#01AAC9" stroke-width="0.2296" stroke-miterlimit="22.9256"/>
<path d="M83.9303 364.526L81.9297 380.157" stroke="#01AAC9" stroke-width="0.2296" stroke-miterlimit="22.9256"/>
<path fill-rule="evenodd" clip-rule="evenodd" d="M91.829 126.114C91.829 126.114 66.2968 321.244 61.5946 358.011C61.079 362.052 65.2038 363.042 69.0811 363.908C72.979 364.774 78.1761 365.063 82.2184 363.124C84.157 356.505 113.154 130.671 113.154 130.671L91.829 126.114Z" stroke="#01AAC9" stroke-width="0.2296" stroke-miterlimit="22.9256"/>
<path d="M59.5742 387.065V383.271" stroke="#01AAC9" stroke-width="0.2262" stroke-miterlimit="22.9256"/>
<path d="M57.3047 381.6C57.3047 381.6 59.0784 382.878 59.6971 383.641C60.3158 384.404 66.7504 386.239 66.7504 386.239H76.6911L81.5996 384.177" stroke="#01AAC9" stroke-width="0.2262" stroke-miterlimit="22.9256"/>
<path d="M59.6971 383.641L60.7488 379.517" stroke="#01AAC9" stroke-width="0.2262" stroke-miterlimit="22.9256"/>
<path d="M66.977 381.93L66.3789 386.549L66.6057 389.889" stroke="#01AAC9" stroke-width="0.2262" stroke-miterlimit="22.9256"/>
<path d="M75.8242 382.445L76.6699 386.219L75.8655 390.508" stroke="#01AAC9" stroke-width="0.2262" stroke-miterlimit="22.9256"/>
<path d="M205.795 463.009C205.795 463.009 208.827 464.7 209.713 466.412C210.6 468.123 218.169 484.846 219.468 485.259C219.902 486.104 221.613 485.238 222.026 483.939C220.665 479.217 215.385 471.092 214.024 466.37C213.591 465.504 211.714 455.627 211.301 456.926C210.456 457.339 207.919 460.823 205.795 463.009Z" stroke="#01AAC9" stroke-width="0.2262" stroke-miterlimit="22.9256"/>
<path fill-rule="evenodd" clip-rule="evenodd" d="M218.954 485.526L222.377 483.753L223.656 484.165L226.77 490.166L226.358 491.465L222.934 493.238L221.635 492.805L218.541 486.825L218.954 485.526Z" fill="#01AAC9"/>
<path d="M92.3652 124.63C93.0252 124.094 93.9121 123.64 95.9126 123.764L95.6856 125.826L93.5408 125.62L92.3652 124.63Z" fill="#01AAC9"/>
<path d="M81.4546 129.558C81.4546 129.723 81.4339 129.868 81.4339 130.115C82.1351 130.321 82.857 130.527 83.6407 130.754C83.5169 131.559 83.4345 132.383 83.2901 133.188C83.2076 133.662 83.3519 133.868 83.8262 134.012C84.8987 134.342 85.9712 134.59 87.1055 134.507C87.6004 134.466 88.116 134.631 88.714 134.713C88.5491 135.373 88.9616 134.383 89.6421 134.548C90.694 134.796 91.6633 135.311 92.777 135.27C92.7358 135.435 92.6739 135.6 92.6326 135.765C91.7045 135.765 90.7765 135.683 89.8691 135.806C87.9098 136.074 85.9712 135.848 84.0532 135.559C82.6714 135.373 81.3102 135.002 79.9284 134.693C79.5572 134.61 79.2066 134.466 78.8766 134.28C78.4229 134.033 78.1754 133.641 78.2579 133.084C78.4229 131.744 78.4228 131.682 78.5465 130.342C78.6084 129.765 79.0003 129.579 79.454 129.558C80.114 129.517 80.7946 129.558 81.4546 129.558Z" stroke="#01AAC9" stroke-width="0.2296" stroke-miterlimit="22.9256"/>
<path d="M86.5069 124.609L93.9727 125.207L94.2202 126.321L89.8891 126.053L88.7135 134.713L87.2906 134.507L85.125 134.363L86.5069 124.609Z" stroke="#01AAC9" stroke-width="0.2296" stroke-miterlimit="22.9256" stroke-linecap="round" stroke-linejoin="round"/>
<path d="M92.3638 124.63C97.6435 126.383 107.749 127.455 111.544 127.372C115.339 127.29 114.039 128.692 114.039 128.692L111.73 131.249L96.4679 130.754L91.9102 128.28L92.3638 124.63Z" fill="#01AAC9"/>
<path d="M112.102 126.651C113.958 127.166 114.886 127.744 114.824 128.156C114.762 128.568 114.37 129.476 101.15 127.311L92.8183 126.857L89.8691 126.053L95.4994 126.341L101.171 127.187C108.266 128.177 116.144 128.775 111.998 127.29L112.102 126.651Z" stroke="#01AAC9" stroke-width="0.2296" stroke-miterlimit="22.9256" stroke-linecap="round" stroke-linejoin="round"/>
<path d="M89.8896 126.053L92.8388 126.857L101.171 127.311C114.391 129.496 114.783 128.568 114.844 128.156L113.463 137.909C113.401 138.322 113.009 139.229 99.7891 137.064L91.457 136.61L88.5078 135.806L89.8896 126.053Z" stroke="#01AAC9" stroke-width="0.2296" stroke-miterlimit="22.9256" stroke-linecap="round" stroke-linejoin="round"/>
<path d="M92.8174 126.857L91.4355 136.59L88.4863 135.786L89.8887 126.053L92.8174 126.857Z" stroke="#01AAC9" stroke-width="0.2296" stroke-miterlimit="22.9256" stroke-linecap="round" stroke-linejoin="round"/>
<path d="M102.058 133.579C101.502 135.497 99.6453 136.631 97.8923 136.136C96.1393 135.641 95.17 133.682 95.7062 131.765C96.263 129.847 98.1192 128.713 99.8722 129.208C101.625 129.703 102.595 131.662 102.058 133.579Z" stroke="#01AAC9" stroke-width="0.2296" stroke-miterlimit="22.9256"/>
<path d="M95.3552 135.331C93.6022 134.837 92.6329 132.878 93.1691 130.96C93.7053 129.042 95.5821 127.908 97.3351 128.403L99.8512 129.187C98.0981 128.692 96.242 129.826 95.6851 131.744C95.1283 133.661 96.1182 135.62 97.8712 136.115L95.3552 135.331Z" stroke="#01AAC9" stroke-width="0.2296" stroke-miterlimit="22.9256"/>
<path d="M100.264 131.167L98.4286 130.692L97.0469 132.177L97.5005 134.157L99.3361 134.652L100.718 133.146L100.264 131.167Z" stroke="#01AAC9" stroke-width="0.2296" stroke-miterlimit="22.9256"/>
<path d="M84.5884 124.32L84.2172 126.836L82.2374 126.403L81.7012 130.115L83.6811 130.692L83.2273 133.868L85.1247 134.362L86.5065 124.609L84.5884 124.32Z" stroke="#01AAC9" stroke-width="0.2296" stroke-miterlimit="22.9256" stroke-linecap="round" stroke-linejoin="round"/>
<path d="M114.041 476.866C114.041 478.783 115.485 480.33 117.258 480.33C119.032 480.33 120.723 478.783 120.723 476.866C120.723 474.948 119.032 473.401 117.258 473.401C115.485 473.401 114.041 474.948 114.041 476.866Z" stroke="#01AAC9" stroke-width="0.1837" stroke-miterlimit="22.9256"/>
<path d="M117.609 478.371L117.094 477.093L117.754 475.876L118.95 475.938L119.486 477.216L118.806 478.433L117.609 478.371Z" stroke="#01AAC9" stroke-width="0.1837" stroke-miterlimit="10" stroke-linecap="round" stroke-linejoin="round"/>
<path d="M144.996 461.875C144.996 463.793 146.44 465.34 148.213 465.34C149.987 465.34 151.678 463.793 151.678 461.875C151.678 459.958 149.987 458.411 148.213 458.411C146.44 458.411 144.996 459.958 144.996 461.875Z" stroke="#01AAC9" stroke-width="0.1837" stroke-miterlimit="22.9256"/>
<path d="M148.585 463.36L148.049 462.082L148.709 460.886L149.905 460.948L150.441 462.226L149.781 463.443L148.585 463.36Z" stroke="#01AAC9" stroke-width="0.1837" stroke-miterlimit="10" stroke-linecap="round" stroke-linejoin="round"/>
<path d="M84.7754 374.94C84.7754 376.672 86.0747 378.074 87.6628 378.074C89.2714 378.074 90.7975 376.672 90.7975 374.94C90.7975 373.208 89.2714 371.806 87.6628 371.806C86.0747 371.826 84.7754 373.208 84.7754 374.94Z" stroke="#01AAC9" stroke-width="0.1653" stroke-miterlimit="22.9256"/>
<path d="M87.9919 376.28L87.5176 375.125L88.1156 374.032L89.2087 374.094L89.683 375.249L89.085 376.342L87.9919 376.28Z" stroke="#01AAC9" stroke-width="0.1653" stroke-miterlimit="10" stroke-linecap="round" stroke-linejoin="round"/>
<path d="M85.5801 368.011C85.5801 369.743 86.8793 371.146 88.4673 371.146C90.0554 371.146 91.6022 369.743 91.6022 368.011C91.6022 366.279 90.076 364.877 88.4673 364.877C86.8587 364.877 85.5801 366.3 85.5801 368.011Z" stroke="#01AAC9" stroke-width="0.1653" stroke-miterlimit="22.9256"/>
<path d="M88.8182 369.351L88.3438 368.196L88.9419 367.124L90.0143 367.165L90.4887 368.32L89.8905 369.413L88.8182 369.351Z" stroke="#01AAC9" stroke-width="0.1653" stroke-miterlimit="10" stroke-linecap="round" stroke-linejoin="round"/>
<path d="M130.869 469.03C130.869 470.947 132.313 472.494 134.086 472.494C135.86 472.494 137.551 470.947 137.551 469.03C137.551 467.112 135.86 465.565 134.086 465.565C132.313 465.565 130.869 467.112 130.869 469.03Z" stroke="#01AAC9" stroke-width="0.1837" stroke-miterlimit="22.9256"/>
<path d="M134.437 470.535L133.9 469.257L134.581 468.04L135.777 468.102L136.313 469.38L135.633 470.597L134.437 470.535Z" stroke="#01AAC9" stroke-width="0.1837" stroke-miterlimit="10" stroke-linecap="round" stroke-linejoin="round"/>
<path fill-rule="evenodd" clip-rule="evenodd" d="M324.238 350.773C301.634 344.03 291.92 357.515 284.331 369.228C276.329 381.579 265.295 408.406 265.295 408.406L281.051 413.17L288.517 409.582C292.848 387.662 308.192 351.35 329.208 359.639C329.208 359.639 338.117 358.278 332.838 353.288L324.238 350.773Z" stroke="#01AAC9" stroke-width="0.2262" stroke-miterlimit="22.9256"/>
<path d="M292.951 358.423C294.869 357.846 301.634 360.568 301.634 360.568" stroke="#01AAC9" stroke-width="0.4593" stroke-miterlimit="22.9256" stroke-linecap="round" stroke-linejoin="round"/>
<path d="M289.094 362.733C291.012 362.155 297.776 364.877 297.776 364.877" stroke="#01AAC9" stroke-width="0.4593" stroke-miterlimit="22.9256" stroke-linecap="round" stroke-linejoin="round"/>
<path d="M285.959 367.289C287.877 366.712 294.642 369.434 294.642 369.434" stroke="#01AAC9" stroke-width="0.4593" stroke-miterlimit="22.9256" stroke-linecap="round" stroke-linejoin="round"/>
<path d="M283.135 371.868C285.053 371.29 291.817 374.012 291.817 374.012" stroke="#01AAC9" stroke-width="0.4593" stroke-miterlimit="22.9256" stroke-linecap="round" stroke-linejoin="round"/>
<path d="M280.412 376.981C282.33 376.404 289.095 379.126 289.095 379.126" stroke="#01AAC9" stroke-width="0.4593" stroke-miterlimit="22.9256" stroke-linecap="round" stroke-linejoin="round"/>
<path d="M281.051 412.613C284.041 397.23 291.981 380.878 297.839 371.434C308.852 353.742 321.246 352.278 331.208 359.103" stroke="#01AAC9" stroke-width="0.2296" stroke-miterlimit="22.9256" stroke-linecap="round" stroke-linejoin="round"/>
<path d="M84.9186 200.801L83.0006 215.565L89.9301 216.472L90.2189 214.224L85.1867 213.565L86.8159 201.048L84.9186 200.801ZM85.0216 243.175C86.0941 242.66 86.6716 241.732 86.8572 240.309C87.1047 238.392 86.2591 236.309 83.7843 235.979L80.4019 235.546L78.4839 250.31L82.4643 250.826C85.2073 251.176 86.6922 249.32 86.9603 247.32C87.1665 245.464 86.4447 243.897 85.0216 243.175ZM81.99 238.041L83.3098 238.206C84.506 238.371 85.0216 239.051 84.8773 240.247C84.6917 241.691 83.9079 242.268 82.4024 242.062L81.4949 241.938L81.99 238.041ZM82.5056 248.557L80.6494 248.31L81.1857 244.186L82.9593 244.413C84.4236 244.598 85.1866 245.464 85.0216 246.763C84.9185 247.547 84.4649 248.805 82.5056 248.557ZM82.7324 260.703C83.8049 260.187 84.3824 259.259 84.568 257.836C84.8155 255.919 83.9698 253.836 81.4949 253.506L78.1127 253.073L76.1947 267.837L80.1751 268.353C82.9181 268.703 84.403 266.848 84.6711 264.847C84.8979 262.971 84.1555 261.424 82.7324 260.703ZM79.7007 255.548L81.0206 255.713C82.2168 255.878 82.7324 256.558 82.5881 257.754C82.4024 259.197 81.6187 259.775 80.1132 259.569L79.2057 259.445L79.7007 255.548ZM80.2369 266.085L78.3809 265.837L78.917 261.713L80.6907 261.94C82.155 262.126 82.9181 262.992 82.7531 264.291C82.6293 265.074 82.1756 266.332 80.2369 266.085ZM73.6786 286.994L80.4432 287.88L80.7319 285.633L75.8647 284.993L76.4009 280.911L80.9588 281.509L81.2475 279.261L76.6897 278.663L77.2053 274.704L81.9281 275.323L82.2168 273.075L75.5966 272.209L73.6786 286.994ZM79.2264 301.923L79.2057 301.84C78.6283 300.067 78.2158 298.768 77.4321 297.778C78.6283 297.242 79.3913 296.067 79.5976 294.438C79.9276 291.839 78.6901 290.025 76.339 289.716L73.3693 289.324L71.4512 304.088L73.3486 304.335L74.1529 298.087L74.6685 298.149C75.3903 298.252 75.9885 298.562 77.0815 301.717L78.1952 304.954L80.4844 305.243L80.2369 304.645C79.7419 303.428 79.5357 302.892 79.2264 301.923ZM77.0609 295.53C76.6691 295.922 76.0915 296.087 75.3285 295.984L74.4416 295.86L74.9779 291.736L75.8647 291.86C77.2465 292.046 77.8033 292.747 77.6383 294.108C77.5764 294.726 77.3909 295.201 77.0609 295.53ZM94.8386 186.49C93.2093 185.315 92.3019 184.902 90.9613 184.737C87.4553 184.284 84.4029 187.232 83.8254 191.583C83.2686 195.914 85.4136 199.398 88.9402 199.852C90.5076 200.058 91.7863 199.873 93.4155 199.213L93.5186 199.172L94.3643 192.759L90.322 192.223L90.0332 194.47L92.1782 194.759L91.8275 197.378C91.1469 197.563 90.3425 197.708 89.497 197.605C86.919 197.275 85.4135 194.862 85.826 191.769C86.2179 188.8 88.3421 186.696 90.6725 187.006C91.9925 187.171 93.2505 187.81 94.4261 188.903L94.6324 189.088L94.9623 186.552L94.8386 186.49ZM85.1247 222.534C83.5367 222.328 82.0312 223.834 81.7631 225.875C81.4949 227.937 82.5675 229.752 84.1555 229.978C85.7435 230.185 87.2491 228.679 87.5172 226.638C87.8059 224.576 86.7334 222.741 85.1247 222.534ZM89.8064 219.895L88.3009 218.452L87.7234 219.38C87.1046 218.967 86.4034 218.678 85.6403 218.575C82.3612 218.142 79.247 221.235 78.6901 225.463C78.3808 227.834 78.9377 230.061 80.072 231.628L79.5151 232.556L81.0206 233.999L81.5775 233.092C82.1962 233.504 82.8975 233.793 83.6605 233.896C86.9397 234.329 90.0539 231.236 90.6107 227.009C90.9201 224.638 90.3632 222.411 89.2289 220.823L89.8064 219.895ZM88.7958 226.803C88.404 229.752 86.2384 231.917 83.9492 231.607C81.6599 231.319 80.1132 228.679 80.505 225.71C80.8969 222.761 83.0625 220.596 85.3517 220.905C87.6409 221.215 89.1877 223.834 88.7958 226.803Z" fill="#01AAC9"/>
<path d="M56.9729 426.326C53.9206 426.202 51.5489 423.645 51.6726 420.593C51.7963 417.541 54.3536 415.17 57.4059 415.294C60.4583 415.417 62.83 417.974 62.7063 421.026C62.5825 424.057 60.0046 426.449 56.9729 426.326Z" fill="#01AAC9"/>
<path d="M64.7902 412.345L65.7183 410.881L62.6247 408.942L61.7173 410.386C60.4592 409.85 59.0775 409.52 57.6338 409.458C51.3642 409.21 46.0638 414.118 45.8163 420.387C45.6719 423.892 47.1569 427.109 49.5905 429.295L48.7037 430.717L51.7972 432.656L52.6634 431.274C53.9215 431.81 55.3032 432.14 56.7469 432.202C63.0371 432.45 68.3169 427.542 68.5644 421.273C68.6881 417.727 67.2032 414.53 64.7902 412.345ZM56.8707 428.738C52.4779 428.573 49.0749 424.882 49.2399 420.49C49.4049 416.098 53.0966 412.695 57.4894 412.86C61.8823 413.025 65.2852 416.716 65.1202 421.108C64.9552 425.5 61.2636 428.924 56.8707 428.738Z" fill="#01AAC9"/>
<path d="M197.958 2.1445C199.691 2.1445 201.65 2.20635 203.877 2.39193C208.683 2.7631 212.044 2.92808 215.592 2.92808C218.17 2.92808 220.871 2.84558 224.336 2.68062C231.224 2.98992 235.122 7.09339 235.205 12.331C235.225 12.6815 235.246 13.0527 235.205 13.4651C234.71 19.1563 228.069 20.8472 223.882 20.8472C223.305 20.8472 222.789 20.8059 222.336 20.7647C219.428 21.4039 216.87 20.7853 210.766 22.2493C206.765 23.2185 202.619 23.569 198.66 23.569C190.884 23.569 183.893 22.1875 180.469 21.3214C179.562 21.94 177.891 22.7442 175.499 22.7442C174.674 22.7442 173.746 22.6411 172.756 22.4143C171.91 22.2287 170.735 21.5895 169.621 20.6616C166.899 21.4864 163.826 22.7442 161.516 24.5588C156.236 28.7447 151.245 32.3945 144.708 33.9823C143.532 34.271 140.913 34.4566 138.232 34.5803L139.758 34.5184C139.758 34.5184 137.572 36.2299 134.808 36.2299C134.561 36.2299 134.334 36.2093 134.086 36.1887L134.231 36.2712C134.231 36.2712 127.755 36.1887 120.557 36.0856C121.114 36.2093 121.506 36.2299 121.506 36.2299L120.042 48.7671C120.702 48.932 121.362 49.097 122.042 49.3032L122.063 49.2207L130.374 49.695L130.25 50.6023L135.798 50.9116L135.097 56.2935L121.114 55.5924L121.258 54.6851L120.99 56.3554C120.99 56.3554 120.269 56.2316 119.175 56.0461L111.153 124.65C112.947 125.062 115.071 125.475 116.866 125.908C118.206 126.217 119.547 126.485 120.867 126.918C122.805 127.537 124.022 128.96 124.6 130.857C125.094 132.527 124.744 135.62 123.96 137.063C123.094 138.672 121.403 139.765 119.382 139.765C118.846 139.765 118.309 139.682 117.732 139.538C115.917 139.043 114.061 138.713 112.205 138.362C107.379 175.83 86.4043 338.607 82.7126 360.773L83.4757 360.876L87.5798 360.526L94.4476 363.021L92.0346 378.466C92.0346 378.466 88.611 379.125 81.9496 380.321C81.7846 382.095 81.6403 383.889 81.4753 385.683C83.4345 387.312 84.5069 389.147 84.2801 390.962C84.0532 392.797 82.5476 394.281 80.2171 395.292C79.8665 398.385 79.454 401.478 79.0622 404.571C82.9395 407.85 105.419 426.882 121.898 442.079C123.486 441.028 125.816 439.687 129.549 439.687C133.097 439.687 137.922 440.904 144.584 444.719C155.948 439.605 214.87 417.356 220.706 414.902C226.852 412.304 263.934 398.735 266.532 398.179C267.213 398.034 268.43 397.911 269.853 397.828C273.792 388.941 279.608 376.548 284.351 369.248C290.538 359.701 298.128 348.979 312.936 348.979C316.318 348.979 320.051 349.535 324.258 350.793L332.838 353.288C338.138 358.278 329.208 359.639 329.208 359.639C328.919 359.516 328.63 359.454 328.342 359.351C338.757 366.939 345.109 382.837 342.469 401.746C338.551 429.893 318.649 451.544 299.695 451.544C299.324 451.544 298.953 451.544 298.582 451.523C288.394 451.07 279.814 443.358 275.05 432.347L212.436 459.854C213.076 462.473 213.797 465.875 214.045 466.349C215.406 471.072 220.686 479.196 222.047 483.918L222.377 483.753L223.676 484.165L226.77 490.166L226.357 491.465L222.934 493.238L221.634 492.826L218.541 486.825L218.953 485.526L219.469 485.258C218.17 484.825 210.601 468.123 209.714 466.411C208.827 464.7 205.795 463.009 205.795 463.009C205.919 462.865 206.063 462.72 206.187 462.576L174.117 476.66L149.245 483.526L113.958 500.682C113.958 500.682 111.545 500.146 110.926 499.074C110.307 498.002 111.4 488.619 111.4 488.619C111.4 488.619 111.462 488.661 111.565 488.723C110.287 487.733 108.946 486.619 107.606 485.403L107.667 485.465C107.667 485.465 100.16 487.815 99.4591 488.269C99.191 488.434 98.9229 488.537 98.6548 488.537C98.201 488.537 97.7886 488.269 97.4998 487.65C97.0874 486.722 97.7268 476 97.438 474.948C96.1387 473.34 95.2932 472.103 95.2519 471.566C95.0663 469.071 104.698 465.69 104.698 465.69C104.718 465.69 104.739 465.669 104.739 465.669C104.842 464.164 104.986 462.803 105.213 461.772C105.419 461.627 105.605 461.504 105.811 461.359L76.5255 437.914L74.5456 438.306C74.0712 441.894 73.6382 445.502 73.2051 449.111C73.6795 450.018 73.9269 450.987 73.9269 451.977C73.9269 453.276 73.4938 454.534 72.7307 455.647C72.6276 456.142 72.4626 456.637 72.6482 456.967C72.9782 457.545 74.7312 457.07 74.6693 457.792C74.6281 458.534 72.5039 459.174 72.442 459.875C72.4008 460.617 74.5456 459.978 74.4838 460.699C74.4425 461.442 72.2976 462.06 72.2357 462.782C72.1945 463.525 74.3393 462.906 74.2775 463.607C74.2362 464.349 72.0914 464.968 72.0295 465.669C71.9883 466.411 74.1331 465.813 74.0713 466.514C74.03 467.257 71.8852 467.855 71.8233 468.576C71.7821 469.319 73.927 468.721 73.8651 469.422C73.8238 469.999 72.5452 470.474 71.9264 471.01C72.2152 471.319 72.5039 471.628 72.8132 471.938C73.267 471.979 73.7 472.02 73.6588 472.35C73.6588 472.35 73.5351 472.432 73.3495 472.515C74.2982 473.505 75.2262 474.494 76.1749 475.484C76.8555 477.051 77.2885 479.34 77.5154 481.732C86.8992 485.217 91.1272 506.147 91.3953 506.786C91.6634 507.425 91.7665 517.88 90.5085 517.88C90.4672 517.88 90.426 517.859 90.3848 517.838C89.0442 517.117 89.4154 514.601 88.5286 512.993C89.5597 518.539 89.6629 524.602 88.6523 530.994C83.9088 560.564 59.779 583.329 36.8247 583.329C36.371 583.329 35.9379 583.329 35.4841 583.308C14.6954 582.504 -0.607353 560.048 2.46559 535.737C4.50734 519.591 13.2723 503.837 25.296 493.465C23.9967 492.228 23.0893 491.238 23.1512 490.846C23.2955 489.857 32.865 483.753 37.2579 480.99C37.3404 477.546 37.526 474.123 38.0003 470.927L46.1879 478.062H46.2085C42.8056 475.092 39.3821 472.144 38.0003 470.948C40.1246 469.999 42.4345 469.113 44.8681 468.288C44.27 467.752 43.1357 467.174 43.1769 466.659C43.1975 466.411 43.4863 466.37 43.8369 466.37C44.105 466.37 44.4143 466.391 44.703 466.391C45.0949 466.391 45.4042 466.329 45.4248 466.061C45.4661 465.38 43.3212 464.597 43.3831 463.875C43.4037 463.628 43.6925 463.586 44.0637 463.586C44.3318 463.586 44.6205 463.607 44.8886 463.607C45.2804 463.607 45.6105 463.545 45.6311 463.277C45.6724 462.597 43.5275 461.813 43.5894 461.112C43.61 460.864 43.9193 460.803 44.2905 460.803C44.538 460.803 44.8268 460.823 45.0743 460.823C45.4867 460.823 45.8167 460.761 45.8373 460.493C45.8786 459.813 43.7337 459.05 43.7956 458.328C43.8162 458.081 44.1255 458.019 44.538 458.019C44.7649 458.019 45.033 458.039 45.2804 458.039C45.6929 458.039 46.0435 457.998 46.0642 457.71C46.1054 457.029 43.9605 456.266 44.0018 455.565C44.0224 455.297 44.3524 455.256 44.7648 455.256C44.9917 455.256 45.2186 455.276 45.4455 455.276C45.8786 455.276 46.2292 455.235 46.2498 454.946C46.2498 454.926 45.3836 453.957 45.7342 453.317C45.6517 452.905 45.5898 452.493 45.5898 452.06C45.5898 450.245 46.4354 448.534 47.8584 447.111C50.3951 428.161 51.8389 409.912 54.4169 390.92C58.2323 394.488 64.1719 396.776 70.6478 396.776C70.7096 396.776 70.7508 396.776 70.8127 396.776C69.8021 396.735 68.7504 396.632 67.6779 396.488C59.0366 395.251 52.4781 390.797 53.0144 386.549C53.2412 384.672 54.8087 383.167 57.2217 382.136C57.5104 380.713 57.7991 379.29 58.0878 377.868C57.6135 377.517 57.3454 377.27 57.3661 377.146C57.5104 376.465 58.5828 365.743 59.119 361.639C59.5521 358.381 60.872 358.051 61.4082 358.051C61.5526 358.051 61.6352 358.072 61.6352 358.072C65.7187 326.214 85.2906 176.407 90.4878 136.672C90.4878 136.672 81.1659 135.991 78.258 133.723C78.258 133.723 79.3509 124.712 79.8459 122.072C80.0728 120.876 83.4139 120.567 87.0024 120.567C91.3953 120.567 96.18 121.062 96.18 121.062L105.11 54.747C103.769 54.747 102.945 54.7882 102.945 54.7882L103.068 53.8191L90.3022 53.0974L91.0241 47.468L103.749 48.1485L103.811 47.6742C103.811 47.6742 104.615 47.5505 106.059 47.468L107.564 35.9C104.471 35.8175 102.181 35.735 101.604 35.6525C100.47 35.4876 99.2736 35.0545 98.2424 34.2916L94.2414 34.2297C87.0849 33.4255 80.8359 30.6624 75.7418 24.5176C74.5044 23.0329 70.2971 22.2493 65.4299 21.8575C62.9138 24.1052 60.0884 24.765 57.696 24.765C56.0048 24.765 54.5406 24.4351 53.6125 24.0845C52.8907 23.9196 52.1482 23.8371 51.3645 23.8371C48.1059 23.8371 44.27 25.0743 38.9284 25.0743C36.9692 25.0743 34.8036 24.9093 32.3906 24.4351C20.3669 22.1256 17.789 24.2289 15.0254 20.5378C13.2311 18.1665 12.4063 11.6505 19.3565 9.77402C20.9445 9.34099 22.0993 9.2379 23.2336 9.2379C24.2236 9.2379 25.193 9.32037 26.4098 9.32037C27.8122 9.32037 29.5445 9.21727 32.0194 8.80486C35.1542 8.28935 40.2071 7.77384 45.5074 7.77384C48.6422 7.77384 51.8389 7.95945 54.7881 8.4131C55.9224 8.00069 57.2836 7.69136 58.9335 7.48516C59.6141 7.40268 60.2328 7.36144 60.8308 7.36144C65.2031 7.36144 66.956 9.38223 66.956 9.38223C67.0592 9.48533 67.1623 9.67092 67.2654 9.87713C72.9576 10.3514 77.7423 11.3824 80.279 13.2383C85.7237 17.1767 88.776 21.1564 93.6226 22.3112L96.9224 22.2906C98.7992 21.2596 100.325 20.0017 102.491 19.7543C102.8 19.713 103.295 19.6924 103.955 19.6718C103.171 18.5995 103.027 16.2282 105.44 15.1147C105.44 15.1147 106.904 15.0941 108.204 15.0941C108.678 15.0941 109.132 15.0941 109.482 15.0941C109.709 15.0941 109.957 15.1147 110.204 15.1353C110.225 15.1147 110.245 15.0941 110.287 15.0941C110.287 15.0941 111.73 15.0735 113.05 15.0735C113.525 15.0735 113.978 15.0735 114.35 15.0735C115.711 15.0941 117.608 15.3621 119.712 15.9601L119.815 15.9808H119.794C122.248 16.6819 124.95 17.7953 127.446 19.5481L125.115 19.5275C125.115 19.5275 123.548 19.1975 121.898 19.1357C122.125 19.28 122.372 19.4243 122.578 19.5687L120.248 19.5481C120.248 19.5481 119.877 19.4656 119.32 19.3831C119.155 19.4243 119.031 19.4862 118.887 19.5481C126.084 19.5687 133.117 19.6512 134.148 19.713C136.231 19.8368 137.819 20.5997 137.819 20.5997C137.861 20.6203 137.922 20.6409 137.964 20.6616C138.686 21.1152 139.366 21.5895 139.552 21.7132C140.418 21.6307 141.14 21.5688 141.552 21.4657C146.667 20.3522 157.763 9.19664 167.641 8.35121L168.301 8.22749C168.879 7.48516 169.58 6.76347 170.426 6.02113C172.199 4.45399 175.066 3.67042 177.479 3.67042C178.737 3.67042 179.851 3.87663 180.634 4.28903C180.882 4.30965 181.15 4.30964 181.397 4.30964C185.44 4.30964 188.348 2.1445 197.958 2.1445ZM197.958 0.0824675C191.916 0.0824675 188.451 0.907295 185.666 1.54653C184.017 1.93831 182.717 2.24761 181.315 2.24761C181.232 2.24761 181.15 2.24761 181.067 2.24761C179.83 1.71148 178.428 1.60838 177.417 1.60838C174.922 1.60838 171.395 2.35071 169.003 4.47461C168.301 5.09322 167.683 5.71182 167.146 6.33043C160.65 6.99028 153.968 11.4855 148.585 15.1147C145.533 17.1561 142.666 19.0944 141.057 19.445C140.934 19.4656 140.665 19.5275 140.047 19.5893C139.737 19.3831 139.387 19.1357 138.995 18.9088C138.933 18.8676 138.851 18.8264 138.747 18.7851C138.727 18.7645 138.686 18.7645 138.665 18.7439C138.459 18.6408 136.644 17.816 134.231 17.651C133.633 17.6098 131.261 17.5685 128.126 17.5479C125.878 16.0426 123.321 14.8672 120.516 14.0631C120.372 14.0012 120.248 13.96 120.083 13.9393C118 13.362 115.958 13.032 114.308 13.0114C113.937 13.0114 113.483 13.0114 112.988 13.0114C111.668 13.0114 110.204 13.032 110.204 13.032C110.101 13.032 109.998 13.0527 109.895 13.0527C109.75 13.0527 109.606 13.032 109.462 13.032C109.091 13.032 108.637 13.032 108.142 13.032C106.822 13.032 105.337 13.0527 105.337 13.0527C105.048 13.0527 104.759 13.1145 104.491 13.2383C102.945 13.96 101.872 15.1766 101.48 16.6818C101.377 17.0736 101.315 17.4654 101.315 17.8572C99.6448 18.2284 98.3249 19.0119 97.0462 19.7955C96.7987 19.9398 96.5512 20.1048 96.3038 20.2492L93.8082 20.2698C91.1272 19.5481 88.941 17.7129 86.2187 15.4034C84.8369 14.228 83.2489 12.8877 81.434 11.568C78.8766 9.71218 74.5869 8.51619 68.3379 7.9182C67.9461 7.48517 65.6361 5.29941 60.7689 5.29941C60.0883 5.29941 59.3665 5.34065 58.6241 5.42313C57.0979 5.60871 55.7368 5.89739 54.52 6.28918C51.8389 5.89739 48.7865 5.6912 45.4248 5.6912C38.5365 5.6912 33.0919 6.49538 31.607 6.74283C29.0084 7.17585 27.3584 7.21712 26.3272 7.21712C25.7085 7.21712 25.1517 7.19649 24.6361 7.17587C24.1206 7.15525 23.6461 7.13462 23.1512 7.13462C22.0581 7.13462 20.6969 7.1965 18.7377 7.73263C14.4892 8.88736 12.7775 11.4443 12.1175 13.4032C11.0244 16.5787 11.973 19.9399 13.3136 21.7132C15.5616 24.7032 17.8921 24.8681 21.7694 25.1362C24.0999 25.3011 27.3172 25.5073 31.9369 26.394C34.288 26.8477 36.5566 27.0539 38.8665 27.0539C42.0219 27.0539 44.6206 26.6415 46.9098 26.2909C48.5803 26.0229 50.024 25.8166 51.3027 25.8166C51.9214 25.8166 52.4576 25.8785 52.9525 25.9816C53.8187 26.2703 55.4893 26.7239 57.6135 26.7239C60.7484 26.7239 63.6151 25.7548 66.0074 23.8784C72.9783 24.5176 74.03 25.6723 74.0713 25.7136C79.1241 31.8172 85.6206 35.2401 93.932 36.1681C93.9939 36.1681 94.0558 36.1887 94.1176 36.1887L97.5205 36.2505C98.6342 36.9516 99.9128 37.4053 101.253 37.6115C101.604 37.6527 102.388 37.7146 105.151 37.8177L104.161 45.4678C103.708 45.5091 103.439 45.5503 103.419 45.5503C103.089 45.6122 102.78 45.7359 102.511 45.9215L91.0652 45.3235C91.024 45.3235 90.9828 45.3235 90.9622 45.3235C89.931 45.3235 89.0442 46.0864 88.9204 47.1174L88.1985 52.7468C88.116 53.3242 88.3017 53.8809 88.6523 54.3346C89.0235 54.7676 89.5598 55.0357 90.1166 55.0769L101.068 55.6955C101.15 55.8399 101.253 55.9842 101.377 56.1079C101.728 56.4791 102.181 56.7059 102.676 56.7471L94.3238 118.752C92.4883 118.608 89.6628 118.423 86.9198 118.423C81.7639 118.423 78.2167 118.959 77.7217 121.619C77.2267 124.279 76.1543 133.022 76.113 133.393C76.0305 134.115 76.3193 134.836 76.8967 135.269C79.3716 137.187 84.8575 138.074 88.0748 138.424C82.0939 184.098 64.0069 322.564 59.6759 356.299C58.5829 356.876 57.3867 358.216 56.9949 361.289C56.7061 363.516 56.2523 367.722 55.8811 371.104C55.613 373.661 55.3243 376.3 55.2624 376.672C55.0974 377.435 55.3655 378.033 55.7574 378.507L55.3243 380.631C52.7257 381.971 51.1583 383.93 50.8695 386.198C50.6633 387.868 51.1583 389.518 52.2101 391.023C50.9108 400.571 49.9002 410.056 48.9102 419.253C47.9616 427.996 46.9922 437.027 45.796 446.08C44.2286 447.832 43.4037 449.853 43.4037 451.957C43.4037 452.328 43.445 452.719 43.5068 453.132C43.5068 453.173 43.4862 453.214 43.4862 453.276C41.9806 453.75 41.8363 455.153 41.8157 455.359C41.7744 455.916 41.9188 456.39 42.1457 456.782C41.6714 457.338 41.6095 457.998 41.6095 458.122C41.5682 458.679 41.7125 459.153 41.9394 459.545C41.4651 460.102 41.4033 460.761 41.4033 460.885C41.362 461.442 41.5064 461.916 41.7332 462.308C41.2795 462.865 41.197 463.524 41.197 463.648C41.1557 464.205 41.3002 464.679 41.527 465.071C41.0733 465.628 41.0114 466.288 40.9908 466.411C40.9702 466.741 40.9907 467.03 41.0732 467.298C39.6502 467.834 38.3096 468.391 37.0309 468.948C36.9072 469.009 36.7835 469.071 36.6804 469.133C36.4947 469.278 36.3092 469.463 36.1854 469.649C36.1854 469.669 36.1648 469.669 36.1648 469.69C36.1029 469.814 36.041 469.937 35.9997 470.061C35.9997 470.082 35.9998 470.082 35.9792 470.102C35.9586 470.164 35.9379 470.247 35.9379 470.309V470.329C35.5461 472.948 35.3193 475.897 35.2162 479.526C21.3776 488.228 21.2538 489.114 21.0888 490.248C20.965 491.176 21.3569 492.001 22.285 493.073C10.5088 503.961 2.36247 519.529 0.403211 535.18C-1.32919 548.81 2.58933 562.77 10.8388 572.524C17.3972 580.256 26.121 584.71 35.3811 585.081C35.8554 585.102 36.3298 585.102 36.8041 585.102C61.7176 585.102 85.868 560.852 90.6527 531.035C91.2715 527.138 91.519 523.262 91.3334 519.488C91.7871 519.302 92.1996 518.973 92.4883 518.519C93.8288 516.498 93.7464 507.508 93.3133 505.837C93.272 505.734 93.2308 505.507 93.1483 505.198C89.7247 491.424 85.105 482.99 79.3922 480.041C79.0829 477.649 78.6291 475.752 78.031 474.371C77.9279 474.144 77.8041 473.958 77.6391 473.773L76.0924 472.164L75.6593 471.711C75.6181 471.381 75.4944 471.051 75.2881 470.762C75.5975 470.37 75.8449 469.896 75.8655 469.278C75.9068 468.783 75.7624 468.288 75.4943 467.855C75.8037 467.463 76.0512 466.989 76.0718 466.37C76.1131 465.875 75.9686 465.38 75.7005 464.947C76.0099 464.556 76.2574 464.081 76.278 463.463C76.3193 462.968 76.1749 462.452 75.8862 462.04C76.1955 461.648 76.4431 461.153 76.4637 460.555C76.5049 460.06 76.3606 459.545 76.0718 459.132C76.3812 458.741 76.6286 458.246 76.6492 457.648C76.6905 457.215 76.6492 455.895 75.0818 455.297C75.618 454.163 75.9068 452.967 75.9068 451.75C75.9068 450.657 75.6799 449.585 75.2262 448.534C75.5562 445.709 75.9068 442.904 76.2574 440.182L103.006 461.586C102.883 462.246 102.78 463.03 102.697 463.937C96.1387 466.391 92.9214 468.927 93.107 471.463C93.1688 472.268 93.5814 473.278 95.355 475.505C95.3756 476.474 95.3343 478.66 95.2931 480.309C95.1487 486.269 95.1901 487.444 95.5407 488.248C96.1388 489.568 97.273 490.352 98.5723 490.352C99.191 490.352 99.8304 490.166 100.408 489.815C101.006 489.527 104.141 488.496 107.111 487.547C107.832 488.166 108.513 488.743 109.173 489.279C108.183 498.29 108.802 499.363 109.09 499.878C110.06 501.548 112.473 502.249 113.463 502.456C113.607 502.497 113.772 502.497 113.916 502.497C114.226 502.497 114.535 502.435 114.824 502.291L149.946 485.217L174.633 478.412C174.736 478.392 174.818 478.351 174.922 478.309L205.383 464.927C206.352 465.545 207.528 466.453 207.858 467.092C208.043 467.442 208.518 468.453 209.178 469.855C213.447 478.949 215.571 483.093 216.829 485.052L216.54 485.939C216.375 486.454 216.417 487.032 216.664 487.506L219.758 493.506C220.005 494.001 220.438 494.352 220.954 494.517L222.253 494.929C222.459 494.991 222.666 495.032 222.872 495.032C223.202 495.032 223.532 494.95 223.82 494.806L227.244 493.032C227.739 492.785 228.09 492.352 228.255 491.836L228.667 490.537C228.832 490.022 228.791 489.444 228.543 488.97L225.45 482.969C225.202 482.475 224.769 482.124 224.254 481.959L223.511 481.732C222.666 479.443 221.263 476.763 219.819 473.958C218.231 470.886 216.582 467.71 215.963 465.545C215.942 465.442 215.901 465.36 215.86 465.257C215.715 464.865 215.344 463.215 215.055 462.019C214.973 461.627 214.87 461.215 214.767 460.803L273.957 434.8C279.422 445.997 288.455 452.884 298.437 453.338C298.829 453.359 299.242 453.359 299.633 453.359C320.381 453.359 340.489 430.223 344.449 401.767C346.779 384.982 342.428 369.599 332.982 360.361C334.426 359.701 335.828 358.67 336.323 357.082C336.88 355.268 336.158 353.391 334.178 351.515C333.931 351.288 333.663 351.123 333.333 351.041L324.753 348.545C320.567 347.288 316.545 346.648 312.853 346.648C296.272 346.648 288.002 359.412 282.536 367.846C277.937 374.94 272.41 386.611 268.389 395.58C267.316 395.663 266.553 395.766 266.017 395.89C263.047 396.529 225.718 410.242 219.819 412.737C217.819 413.582 209.384 416.819 198.721 420.923C179.397 428.346 153.225 438.409 144.605 442.162C138.768 438.945 133.798 437.378 129.446 437.378C126.229 437.378 123.857 438.265 122.063 439.254C106.677 425.15 86.858 408.283 81.1659 403.457L81.1865 403.375C81.4752 401.045 81.7846 398.715 82.0527 396.385C84.4863 395.044 85.9712 393.147 86.2393 390.962C86.5075 388.776 85.5588 386.549 83.5376 384.569L83.5788 384.177L83.7851 381.806C89.3948 380.796 92.3233 380.239 92.3645 380.218C93.2101 380.053 93.8701 379.373 94.0144 378.507L96.4275 363.062C96.5719 362.093 96.015 361.145 95.0869 360.815L88.2192 358.32C87.9923 358.237 87.7449 358.196 87.518 358.196C87.4561 358.196 87.3942 358.196 87.3323 358.196L85.0844 358.402C89.6217 329.039 109.214 177.067 113.916 140.528C115.009 140.734 116.082 140.961 117.134 141.27C117.856 141.476 118.598 141.579 119.32 141.579C122.022 141.579 124.476 140.136 125.734 137.785C126.806 135.785 127.177 132.156 126.518 130.011C125.713 127.351 123.96 125.516 121.444 124.691C120.392 124.341 119.32 124.114 118.289 123.866C117.959 123.784 117.629 123.722 117.299 123.64C116.329 123.413 115.278 123.186 114.205 122.959C113.916 122.897 113.648 122.835 113.36 122.773L120.908 58.1493H120.929C121.362 58.1493 121.774 58.0256 122.125 57.7575C122.248 57.6751 122.372 57.572 122.475 57.4483L134.932 58.0668C134.973 58.0668 134.994 58.0668 135.035 58.0668C136.066 58.0668 136.953 57.3039 137.077 56.2729L137.778 50.891C137.861 50.3136 137.696 49.7568 137.324 49.3032C136.953 48.8702 136.417 48.6021 135.86 48.5609L132.086 48.3547C132.024 48.2516 131.962 48.1691 131.9 48.0866C131.529 47.6536 130.993 47.3855 130.436 47.3443L122.248 46.87L123.3 37.9002C129.281 37.9826 134.169 38.0445 134.169 38.0445H134.19C134.355 38.0445 134.499 38.0239 134.643 37.9827C134.685 37.9827 134.726 37.9827 134.767 37.9827C137.366 37.9827 139.49 36.8485 140.459 36.2093C142.831 36.065 144.295 35.9 145.182 35.6732C152.132 33.9823 157.268 30.2294 162.774 25.8579C164.321 24.6413 166.528 23.5278 169.209 22.6411C170.261 23.3628 171.333 23.8989 172.282 24.1051C173.375 24.3526 174.447 24.4763 175.478 24.4763C177.871 24.4763 179.665 23.8165 180.799 23.1979C184.017 23.9608 190.802 25.3011 198.639 25.3011C203.197 25.3011 207.445 24.8269 211.219 23.9196C214.746 23.0741 216.953 22.9504 218.891 22.8473C220.067 22.7855 221.201 22.7236 222.377 22.4968C222.831 22.538 223.326 22.5586 223.841 22.5586C230.09 22.5586 236.648 19.6924 237.226 13.3001C237.247 12.7846 237.247 12.3309 237.226 11.8979C237.082 5.27878 231.946 0.597968 224.398 0.268043C224.377 0.268043 224.336 0.268043 224.315 0.268043C224.274 0.268043 224.254 0.268043 224.212 0.268043C220.541 0.453626 217.963 0.515508 215.571 0.515508C212.251 0.515508 208.992 0.371166 204.001 0C201.877 0.164963 199.835 0.0824675 197.958 0.0824675Z" fill="#01AAC9"/>
</svg>
