<svg width="36" height="28" viewBox="0 0 36 28" fill="none" xmlns="http://www.w3.org/2000/svg">
<g clip-path="url(#clip0_102_446)">
<path d="M35.9313 21.9512C35.9313 21.7473 35.9312 21.5434 35.8627 21.3395C35.9312 21.1357 35.8627 20.9318 35.7255 20.7279C35.5884 20.592 35.2455 20.2522 34.8341 20.1842C34.7655 20.1842 34.697 20.1842 34.6284 20.1842C34.2855 20.1842 33.737 20.3201 33.3255 21.0677C33.257 21.0677 33.257 21.1357 33.1884 21.1357C33.1198 21.2036 32.9141 21.3395 32.777 21.3395C32.5712 21.3395 32.0227 21.2716 31.4055 21.2716C30.9255 21.2716 30.5827 21.2716 30.2398 21.3395C29.6227 21.4075 28.7998 21.5434 28.3198 21.6793C28.1141 21.2716 27.7027 20.9318 27.2912 20.7279C27.2227 20.6599 27.2227 20.592 27.1541 20.524C26.9484 20.2522 26.8113 20.0483 26.6741 19.8444V19.7764C26.6741 19.6405 26.6055 19.5725 26.537 19.4366C26.6055 18.2813 26.6741 14.8832 26.8112 11.8929L27.017 6.93177L27.0855 6.86381H27.2227H27.3598H27.497L27.7027 6.79585L27.977 6.72789C28.1141 6.79585 28.2513 6.79585 28.3884 6.79585H28.457C28.5941 6.79585 28.7998 6.72789 28.937 6.65993C29.2798 6.45605 29.4855 6.04828 29.4855 5.70847C29.4855 5.36867 29.2798 5.02886 29.0055 4.82498C29.0055 4.82498 28.8684 4.75702 28.7998 4.68905C28.6627 4.62109 28.5941 4.62109 28.5255 4.62109C28.5255 4.62109 28.5255 4.62109 28.457 4.62109H28.3884C28.3198 4.62109 28.2513 4.62109 28.2513 4.62109C27.977 4.68905 27.7027 4.75702 27.5655 4.9609H27.497C27.3598 4.9609 27.2227 5.02886 27.0855 5.02886H26.9484L26.8112 5.09682H26.7427C26.6741 5.09682 26.6055 5.09682 26.537 5.09682C26.3313 5.09682 26.1255 5.16478 25.9884 5.30071L25.9198 5.36867C25.8512 5.36867 25.7827 5.30071 25.6455 5.30071C25.5084 5.30071 25.4398 5.30071 25.3027 5.36867C25.2341 5.36867 25.1655 5.43663 25.097 5.50459H25.0284H24.9598C24.9598 5.50459 24.8913 5.50459 24.8227 5.50459L24.6855 5.77643L24.4798 5.84439C24.4113 5.84439 24.2741 5.77643 24.137 5.77643H24.0684C24.0684 5.77643 23.9312 5.77643 23.8627 5.84439C23.8627 5.84439 23.7941 5.84439 23.7941 5.91236C23.657 5.98032 23.3827 6.11624 23.3141 6.52401C23.2455 6.93177 23.3827 7.33954 23.657 7.61138C23.657 7.61138 23.657 7.61138 23.7255 7.61138C23.7255 7.61138 23.7941 7.61138 23.7941 7.67935C23.8627 7.74731 24.0684 7.81527 24.2741 7.81527C24.3427 7.81527 24.4113 7.81527 24.4798 7.81527C24.7541 7.74731 24.8913 7.67935 25.0284 7.54342C25.097 7.54342 25.1655 7.54342 25.2341 7.47546C25.2341 7.47546 25.3027 7.47546 25.3712 7.47546C25.3027 8.97061 25.1655 11.8929 25.097 14.5434C25.0284 16.7182 24.9598 18.6891 24.8912 19.5046L24.8227 19.5725C24.7541 19.5725 24.617 19.6405 24.5484 19.6405H24.4798C24.2741 19.7085 23.9313 19.8444 23.657 19.9803C23.5884 19.9803 23.5884 19.9803 23.5198 19.9803C22.9712 19.9803 22.4912 20.1842 22.1484 20.524C21.737 20.8638 21.5312 21.4075 21.5312 21.8832C21.5312 22.359 21.737 22.8347 22.0798 23.2425C22.4227 23.5823 22.9027 23.7861 23.4513 23.7861C23.8627 23.7861 24.2055 23.6502 24.4798 23.5143C24.8227 24.6017 25.7141 25.0774 26.537 25.0774C26.6741 25.0774 26.8113 25.0774 26.8798 25.0774C27.7027 24.9415 28.3198 24.3978 28.5941 23.6502C28.5941 23.6502 28.5941 23.6502 28.6627 23.6502C28.7998 23.6502 28.937 23.6502 29.0741 23.6502C29.2798 23.5823 29.6227 23.5143 29.9655 23.3784C30.6512 23.1745 31.6112 22.9026 32.3655 22.9026H32.4341C32.4341 22.9026 33.257 22.9706 33.9427 22.9706C34.1484 23.1745 34.3541 23.3104 34.6284 23.3104H34.697C35.1084 23.3104 35.5198 23.1065 35.7255 22.6988C35.9312 22.4949 35.9998 22.223 35.9313 21.9512Z" fill="#00AACA"/>
<path d="M14.4013 21.5433C14.127 21.1356 13.8527 20.8637 13.5098 20.7278C13.3727 20.6598 13.2356 20.6598 13.0984 20.6598C12.8241 20.6598 12.6184 20.7278 12.4127 20.9317L12.0013 20.7278L11.8641 20.6598C11.8641 20.5919 11.7956 20.5239 11.727 20.5239V20.388C11.6584 20.32 11.5898 20.2521 11.4527 20.2521C11.1784 20.1162 10.9041 19.9802 10.6984 19.8443C10.6298 19.7763 10.5613 19.7763 10.4241 19.7763C10.3556 19.7763 10.3556 19.7763 10.287 19.7084C10.0813 19.6404 9.94413 19.5045 9.80699 19.3686C9.87556 19.2327 9.87556 19.0288 9.80699 18.8929C9.73842 18.689 9.66985 18.4851 9.46413 18.3492V18.2812C9.46413 18.2132 9.46413 18.1453 9.46413 18.1453C9.5327 17.8734 9.60128 17.6016 9.73842 17.3297C9.87556 17.0579 9.94413 16.7861 10.0813 16.5142L10.287 16.1064C10.3556 15.9026 10.4927 15.6987 10.5613 15.4948C10.6298 15.4268 10.6984 15.3589 10.767 15.3589C10.9041 15.2909 10.9727 15.2909 11.0413 15.2229H11.1098C11.247 15.155 11.3841 15.087 11.4527 15.0191C11.5213 15.0191 11.5213 14.9511 11.5898 14.9511C11.727 15.087 11.8641 15.155 12.0698 15.155C12.1384 15.155 12.2756 15.155 12.3441 15.087C12.5498 15.0191 12.687 14.8831 12.7556 14.6793C12.8241 14.4754 12.8241 14.2715 12.687 14.0676C12.5498 13.8637 12.3441 13.7278 12.0698 13.7278C11.8641 13.7278 11.727 13.7958 11.5898 13.9317C11.5898 13.9317 11.5898 13.9317 11.5213 13.9317C11.4527 13.8637 11.3841 13.7958 11.3156 13.7278C11.3156 13.7278 11.247 13.7278 11.247 13.6598C11.1784 13.5919 11.1098 13.456 10.9727 13.456C10.9041 13.456 10.8356 13.456 10.8356 13.456L10.767 13.388H10.6984C10.6298 13.388 10.5613 13.32 10.4241 13.32H10.3556C10.287 13.32 10.1498 13.32 10.0813 13.32C9.94413 13.32 9.87556 13.388 9.80699 13.456C9.73842 13.5239 9.66985 13.5239 9.60128 13.5919L9.5327 13.6598C9.46413 13.7278 9.18985 13.7958 9.18985 14.0676C9.18985 14.0676 9.18985 14.0676 9.12128 14.1356C9.0527 14.2035 8.98413 14.2715 8.98413 14.3395C8.70985 14.4074 8.50413 14.4754 8.22985 14.5433C8.16128 14.5433 8.16128 14.5433 8.16128 14.5433C8.0927 14.5433 8.0927 14.5433 8.0927 14.4754C8.02413 14.4074 7.95556 14.4074 7.81842 14.4074C7.74985 14.4074 7.6127 14.4754 7.54413 14.5433C7.47556 14.6113 7.40699 14.6793 7.40699 14.7472C7.33842 15.0191 7.33842 15.2909 7.47556 15.4948C7.33842 15.3589 7.20128 15.2909 6.99556 15.155C6.78985 15.0191 6.51556 14.9511 6.24128 14.9511C6.1727 14.9511 6.1727 14.9511 6.10413 14.9511H6.03556V14.8831C6.03556 14.8152 5.96699 14.8152 5.89842 14.7472C5.82985 14.6793 5.82985 14.6793 5.82985 14.6113C5.82985 14.5433 5.76128 14.5433 5.76128 14.4754C5.76128 14.4074 5.6927 14.4074 5.6927 14.3395C5.6927 14.2715 5.62413 14.2035 5.62413 14.1356C5.62413 14.0676 5.62413 14.0676 5.55556 14.0676C5.55556 13.9996 5.55556 13.9317 5.55556 13.9317C5.48699 13.5239 5.41842 13.1162 5.28128 12.7763C5.28128 12.7084 5.2127 12.5725 5.14413 12.5725L5.00699 11.621L4.80128 10.3977L4.7327 9.85402L4.45842 8.15499L4.2527 6.99965L4.04699 6.32004C4.04699 6.32004 4.04699 6.32004 4.11556 6.32004H4.18413C4.2527 6.25208 4.32128 6.18411 4.32128 6.04819V5.98023C4.32128 5.91227 4.32128 5.84431 4.32128 5.77635C4.32128 5.64043 4.18413 5.57246 4.04699 5.57246H3.97842C3.97842 5.57246 3.97842 5.57246 3.97842 5.5045V5.43654V5.30062L3.56699 3.60159V3.46567C3.70413 3.46567 3.84128 3.46567 3.97842 3.46567C4.11556 3.46567 4.2527 3.46567 4.45842 3.46567C4.52699 3.53363 4.66413 3.60159 4.80128 3.60159H4.86985C5.07556 3.60159 5.28128 3.46567 5.41842 3.19382C5.55556 2.92198 5.41842 2.58217 5.2127 2.37829C5.07556 2.24237 4.86985 2.24237 4.7327 2.24237C4.59556 2.24237 4.45842 2.31033 4.38985 2.37829C4.32128 2.37829 4.2527 2.37829 4.18413 2.31033C4.11556 2.31033 4.04699 2.31033 3.90985 2.31033C3.7727 2.31033 3.56699 2.31033 3.42985 2.31033C3.36128 2.31033 3.2927 2.24237 3.22413 2.24237C3.08699 2.24237 3.01842 2.31033 2.94985 2.37829H2.88128C2.74413 2.31033 2.60699 2.24237 2.53842 2.24237C2.46985 2.24237 2.40128 2.24237 2.40128 2.31033C2.3327 2.31033 2.3327 2.31033 2.3327 2.31033H2.26413C2.05842 2.31033 1.92128 2.31033 1.71556 2.31033C1.57842 2.31033 1.3727 2.31033 1.23556 2.31033C1.02985 2.17441 0.892704 2.10645 0.755561 2.10645C0.618418 2.10645 0.549847 2.10645 0.412704 2.17441C0.20699 2.31033 0.069847 2.44625 0.00127556 2.65013C-0.0672959 3.0579 0.138418 3.39771 0.549847 3.53363C0.618418 3.53363 0.755561 3.60159 0.824133 3.60159C0.961276 3.60159 1.09842 3.53363 1.23556 3.46567C1.3727 3.46567 1.50985 3.46567 1.64699 3.46567C1.8527 3.46567 2.05842 3.46567 2.19556 3.46567H2.26413H2.3327H2.40128C2.53842 4.07732 2.67556 4.62101 2.74413 5.1647L2.8127 5.70839C2.8127 5.77635 2.74413 5.84431 2.67556 5.91227C2.60699 6.04819 2.60699 6.25208 2.67556 6.388C2.74413 6.59188 2.88128 6.65984 3.01842 6.7278C3.08699 6.99965 3.08699 7.20353 3.15556 7.47538L3.36128 8.76664L3.63556 10.2618L3.97842 12.3006L4.04699 12.6404L4.11556 12.9123C4.11556 12.9802 4.04699 13.0482 4.04699 13.1162C4.04699 13.2521 4.04699 13.388 4.11556 13.5239C4.11556 13.7278 4.18413 13.9996 4.2527 14.2715C4.2527 14.3395 4.2527 14.3395 4.32128 14.4074V14.4754V14.5433C4.38985 14.7472 4.38985 15.0191 4.52699 15.2229C4.52699 15.3589 4.52699 15.4268 4.59556 15.4948L4.66413 15.6307C4.80128 15.7666 4.93842 15.9026 5.00699 16.0385C5.00699 16.1064 5.07556 16.1064 5.07556 16.1064L5.14413 16.1744C5.14413 16.3103 5.2127 16.3103 5.28128 16.3783C5.34985 16.9899 5.6927 17.3977 6.1727 17.7375C6.1727 17.7375 6.1727 17.8055 6.24128 17.8734C6.30985 17.9414 6.37842 18.0773 6.44699 18.1453C6.78985 18.4851 7.06413 18.8929 7.40699 19.2327C7.47556 19.3006 7.47556 19.3686 7.47556 19.3686C7.47556 19.4365 7.47556 19.4365 7.47556 19.5045C7.47556 19.6404 7.6127 19.8443 7.74985 19.8443C7.88699 19.9802 8.02413 20.0482 8.16128 20.0482C8.22985 20.0482 8.22985 20.0482 8.29842 20.0482H8.36699L8.70985 20.456C8.70985 20.456 8.70985 20.5239 8.77842 20.5239C8.91556 20.7278 9.0527 20.9996 9.0527 21.3395H8.91556H8.84699C8.77842 21.3395 8.70985 21.2715 8.70985 21.2715H8.64128H8.5727C8.50413 21.2715 8.43556 21.2035 8.43556 21.2035C8.36699 21.2035 8.36699 21.2035 8.29842 21.1356H8.22985C8.16128 21.1356 8.16128 21.1356 8.16128 21.1356C8.0927 21.1356 8.0927 21.1356 8.02413 21.0676C7.95556 21.0676 7.95556 21.0676 7.88699 21.0676H7.81842L7.68128 20.9996C7.6127 20.9996 7.54413 20.9996 7.47556 20.9317C7.20128 20.8637 6.92699 20.7958 6.72128 20.7958C6.6527 20.7958 6.6527 20.7958 6.58413 20.7958C6.51556 20.7958 6.51556 20.7958 6.44699 20.7958C6.37842 20.7958 6.24128 20.7278 6.1727 20.6598C6.10413 20.6598 6.03556 20.5919 5.89842 20.5919C5.82985 20.5919 5.76128 20.5239 5.6927 20.456C5.55556 20.2521 5.41842 20.1162 5.28128 19.9123C5.07556 19.6404 4.80128 19.4365 4.45842 19.3686C4.38985 19.3686 4.32128 19.3686 4.2527 19.3686H4.18413C4.04699 19.3686 3.90985 19.5045 3.84128 19.6404C3.7727 19.7763 3.84128 19.9123 3.90985 19.9802C3.49842 19.9802 3.42985 20.2521 3.42985 20.5919V20.6598C3.42985 20.6598 3.42985 20.7278 3.42985 20.7958V20.8637C3.49842 21.1356 3.63556 21.3395 3.7727 21.4754C3.90985 21.6113 4.11556 21.6793 4.32128 21.6793C4.52699 21.8152 4.80128 21.9511 5.14413 22.087C5.41842 22.155 5.62413 22.2909 5.89842 22.3589L6.1727 22.4268C6.1727 22.4948 6.1727 22.5628 6.1727 22.6987C6.24128 22.9705 6.37842 23.1744 6.58413 23.3103C6.6527 23.3783 6.72128 23.3783 6.78985 23.3783C6.85842 23.3783 6.92699 23.3783 7.06413 23.3103C7.20128 23.2424 7.26985 23.1064 7.33842 22.9705C7.40699 22.9705 7.40699 23.0385 7.47556 23.0385C7.54413 23.0385 7.6127 23.1064 7.6127 23.1064L7.74985 23.1744C7.95556 23.2424 8.0927 23.3783 8.29842 23.3783C8.29842 23.7861 8.43556 24.1259 8.64128 24.4657C8.84699 24.8055 9.12128 25.0773 9.46413 25.2132C9.60128 25.2812 9.80699 25.3492 9.94413 25.3492C10.3556 25.3492 10.6298 25.1453 10.8356 24.8055C11.0413 24.4657 11.1098 24.0579 11.0413 23.7861C11.1098 23.7861 11.1784 23.7181 11.247 23.6501C11.4527 23.7861 11.727 23.854 12.0013 23.854C12.1384 23.854 12.2756 23.854 12.4127 23.7861C12.5498 23.7861 12.687 23.7181 12.7556 23.6501C12.8241 23.7181 12.8927 23.7181 13.0298 23.7861C13.167 23.854 13.3727 23.922 13.5098 23.922C13.8527 23.922 14.127 23.7861 14.3327 23.5142C14.5384 23.2424 14.607 22.9705 14.607 22.5628C14.7441 22.155 14.607 21.8152 14.4013 21.5433ZM8.43556 15.7666C8.43556 15.6987 8.50413 15.6307 8.5727 15.6307C8.50413 15.8346 8.43556 15.9705 8.36699 16.1744C8.36699 16.1744 8.36699 16.2424 8.29842 16.2424C8.22985 16.1744 8.16128 16.1064 8.0927 16.0385C8.22985 16.0385 8.36699 15.9026 8.43556 15.7666Z" fill="#00AACA"/>
<path d="M16.3213 28C16.2527 28 16.3213 28 16.3213 28C16.1156 28 16.047 27.7961 16.047 27.6602L21.6013 0.203883C21.6699 0.0679612 21.807 0 21.9441 0C22.0813 0 22.1499 0.135922 22.1499 0.339806L16.5956 27.7961C16.527 27.8641 16.4584 28 16.3213 28Z" fill="#00AACA"/>
</g>
<defs>
<clipPath id="clip0_102_446">
<rect width="36" height="28" fill="white"/>
</clipPath>
</defs>
</svg>
