<svg width="659" height="700" viewBox="0 0 659 700" fill="none" xmlns="http://www.w3.org/2000/svg">
<mask id="path-1-inside-1_102_1361" fill="white">
<path d="M329.524 582.184C284.03 582.184 239.558 568.659 201.732 543.318C163.905 517.978 134.423 481.96 117.013 439.82C99.6031 397.68 95.0479 351.311 103.923 306.575C112.799 261.84 134.706 220.748 166.875 188.495C199.044 156.243 240.03 134.279 284.649 125.38C329.269 116.482 375.519 121.049 417.549 138.504C459.58 155.959 495.505 185.517 520.78 223.442C546.055 261.367 559.545 305.955 559.545 351.567C559.495 412.715 535.245 471.345 492.119 514.583C448.992 557.821 390.514 582.135 329.524 582.184ZM540.168 97.1352L565.171 53.2677L473.287 0L448.91 42.6142C375.994 14.2234 295.384 12.7583 221.49 38.4808C147.595 64.2033 85.2345 115.437 45.555 183.022C5.87546 250.607 -8.53589 330.137 4.89722 407.397C18.3303 484.656 58.7322 554.607 118.88 604.745L94.5031 646.732L186.386 700L210.139 658.639C282.99 687.108 363.568 688.657 437.453 663.008C511.339 637.36 573.711 586.189 613.407 518.651C653.103 451.113 667.533 371.617 654.114 294.388C640.695 217.159 600.304 147.237 540.168 97.1352Z"/>
</mask>
<path d="M559.545 351.567L560.545 351.567V351.567H559.545ZM565.171 53.2677L566.039 53.7629L566.531 52.9005L565.672 52.4026L565.171 53.2677ZM473.287 0L473.789 -0.865132L472.919 -1.36958L472.419 -0.496541L473.287 0ZM448.91 42.6142L448.547 43.546L449.35 43.8587L449.778 43.1107L448.91 42.6142ZM118.88 604.745L119.745 605.247L120.169 604.517L119.521 603.977L118.88 604.745ZM94.5031 646.732L93.6383 646.23L93.1358 647.096L94.0015 647.597L94.5031 646.732ZM186.386 700L185.885 700.865L186.754 701.369L187.254 700.498L186.386 700ZM210.139 658.639L210.503 657.708L209.7 657.394L209.271 658.141L210.139 658.639ZM329.524 581.184C284.229 581.184 239.95 567.718 202.288 542.487L201.175 544.149C239.166 569.6 283.832 583.184 329.524 583.184V581.184ZM202.288 542.487C164.626 517.257 135.271 481.396 117.937 439.438L116.089 440.202C133.574 482.524 163.184 518.698 201.175 544.149L202.288 542.487ZM117.937 439.438C100.603 397.481 96.0671 351.312 104.904 306.77L102.942 306.381C94.0286 351.31 98.6035 397.88 116.089 440.202L117.937 439.438ZM104.904 306.77C113.741 262.228 135.554 221.314 167.583 189.202L166.167 187.789C133.858 220.182 111.856 261.452 102.942 306.381L104.904 306.77ZM167.583 189.202C199.612 157.089 240.42 135.221 284.845 126.361L284.454 124.4C239.64 133.337 198.476 155.397 166.167 187.789L167.583 189.202ZM284.845 126.361C329.27 117.501 375.318 122.048 417.166 139.427L417.933 137.58C375.719 120.049 329.268 115.462 284.454 124.4L284.845 126.361ZM417.166 139.427C459.014 156.806 494.782 186.236 519.947 223.997L521.612 222.888C496.227 184.799 460.147 155.111 417.933 137.58L417.166 139.427ZM519.947 223.997C545.113 261.757 558.545 306.152 558.545 351.567H560.545C560.545 305.758 546.996 260.977 521.612 222.888L519.947 223.997ZM558.545 351.566C558.496 412.45 534.35 470.826 491.411 513.877L492.827 515.289C536.14 471.863 560.495 412.98 560.545 351.567L558.545 351.566ZM491.411 513.877C448.471 556.928 390.248 581.135 329.523 581.184L329.525 583.184C390.781 583.134 449.513 558.715 492.827 515.289L491.411 513.877ZM541.037 97.6304L566.039 53.7629L564.302 52.7726L539.3 96.6401L541.037 97.6304ZM565.672 52.4026L473.789 -0.865132L472.786 0.865132L564.669 54.1329L565.672 52.4026ZM472.419 -0.496541L448.042 42.1176L449.778 43.1107L474.155 0.496541L472.419 -0.496541ZM449.273 41.6823C376.135 13.2053 295.28 11.7357 221.161 37.5364L221.818 39.4253C295.488 13.781 375.853 15.2416 448.547 43.546L449.273 41.6823ZM221.161 37.5364C147.042 63.3371 84.4921 114.726 44.6926 182.515L46.4173 183.528C85.9769 116.147 148.149 65.0695 221.818 39.4253L221.161 37.5364ZM44.6926 182.515C4.89314 250.305 -9.56165 330.076 3.912 407.568L5.88244 407.225C-7.51014 330.199 6.85778 250.909 46.4173 183.528L44.6926 182.515ZM3.912 407.568C17.3857 485.061 57.9095 555.223 118.24 605.513L119.521 603.977C59.5549 553.991 19.275 484.252 5.88244 407.225L3.912 407.568ZM118.015 604.243L93.6383 646.23L95.3679 647.234L119.745 605.247L118.015 604.243ZM94.0015 647.597L185.885 700.865L186.888 699.135L95.0046 645.867L94.0015 647.597ZM187.254 700.498L211.006 659.137L209.271 658.141L185.519 699.502L187.254 700.498ZM209.775 659.571C282.847 688.126 363.671 689.68 437.781 663.953L437.125 662.064C363.464 687.634 283.132 686.09 210.503 657.708L209.775 659.571ZM437.781 663.953C511.892 638.227 574.453 586.9 614.269 519.157L612.545 518.144C572.969 585.477 510.786 636.494 437.125 662.064L437.781 663.953ZM614.269 519.157C654.085 451.415 668.558 371.679 655.099 294.217L653.129 294.559C666.507 371.555 652.12 450.811 612.545 518.144L614.269 519.157ZM655.099 294.217C641.64 216.754 601.127 146.621 540.808 96.3669L539.528 97.9035C599.482 147.853 639.751 217.563 653.129 294.559L655.099 294.217Z" fill="#01AAC9" mask="url(#path-1-inside-1_102_1361)"/>
</svg>
